<?xml version="1.0" encoding="UTF-8"?>
<svg width="39px" height="38px" viewBox="0 0 39 38" version="1.1" xmlns="http://www.w3.org/2000/svg" xmlns:xlink="http://www.w3.org/1999/xlink">
    <!-- Generator: Sketch 47.1 (45422) - http://www.bohemiancoding.com/sketch -->
    <title>Facebook Copy 2</title>
    <desc>Created with Sketch.</desc>
    <defs></defs>
    <g id="Page-1" stroke="none" stroke-width="1" fill="none" fill-rule="evenodd">
        <g id="Ver-2" transform="translate(-169.000000, -3776.000000)" fill="#E9C779">
            <g id="Footer" transform="translate(0.000000, 3451.000000)">
                <path d="M208,344 C208,354.493278 199.269417,363 188.5,363 C177.730583,363 169,354.493278 169,344 C169,333.506722 177.730583,325 188.5,325 C199.269417,325 208,333.506722 208,344 L208,344 Z M189.67325,344 L191.776,344 L192.0555,341.440278 L189.67325,341.440278 L189.6765,340.159889 C189.6765,339.492778 189.7415,339.134944 190.72625,339.134944 L192.040333,339.134944 L192.040333,336.575222 L189.9365,336.575222 C187.410167,336.575222 186.519667,337.817611 186.519667,339.904444 L186.519667,341.440278 L184.9445,341.440278 L184.9445,344 L186.519667,344 L186.519667,351.424778 L189.67325,351.424778 L189.67325,344 L189.67325,344 Z" id="Facebook-Copy-2"></path>
            </g>
        </g>
    </g>
</svg>