<?xml version="1.0" encoding="UTF-8"?>
<svg width="39px" height="38px" viewBox="0 0 39 38" version="1.1" xmlns="http://www.w3.org/2000/svg" xmlns:xlink="http://www.w3.org/1999/xlink">
    <!-- Generator: Sketch 47.1 (45422) - http://www.bohemiancoding.com/sketch -->
    <title>Instagram Copy</title>
    <desc>Created with Sketch.</desc>
    <defs></defs>
    <g id="Page-1" stroke="none" stroke-width="1" fill="none" fill-rule="evenodd">
        <g id="Ver-2" transform="translate(-230.000000, -3776.000000)" fill="#E9C779">
            <g id="Footer" transform="translate(0.000000, 3451.000000)">
                <path d="M246.27925,344 C246.27925,342.266778 247.721167,340.861833 249.5,340.861833 C251.278833,340.861833 252.72075,342.266778 252.72075,344 C252.72075,345.732167 251.278833,347.138167 249.5,347.138167 C247.721167,347.138167 246.27925,345.732167 246.27925,344 L246.27925,344 Z M254.653417,344 C254.653417,346.772944 252.345917,349.021278 249.5,349.021278 C246.654083,349.021278 244.346583,346.772944 244.346583,344 C244.346583,343.565111 244.4105,343.146056 244.515583,342.743889 L243.057417,342.743889 L243.057417,349.648278 C243.057417,349.9945 243.346667,350.275278 243.703083,350.275278 L255.296917,350.275278 C255.653333,350.275278 255.942583,349.9945 255.942583,349.648278 L255.942583,342.743889 L254.484417,342.743889 C254.590583,343.146056 254.653417,343.565111 254.653417,344 L254.653417,344 Z M255.296917,337.723667 L253.365333,337.723667 C253.008917,337.723667 252.72075,338.004444 252.72075,338.350667 L252.72075,340.233778 C252.72075,340.58 253.008917,340.861833 253.365333,340.861833 L255.296917,340.861833 C255.653333,340.861833 255.942583,340.58 255.942583,340.233778 L255.942583,338.350667 C255.942583,338.004444 255.653333,337.723667 255.296917,337.723667 L255.296917,337.723667 Z M249.5,363 C238.730583,363 230,354.493278 230,344 C230,333.506722 238.730583,325 249.5,325 C260.269417,325 269,333.506722 269,344 C269,354.493278 260.269417,363 249.5,363 Z M257.874167,337.723667 C257.874167,336.683944 257.008583,335.840556 255.942583,335.840556 L243.057417,335.840556 C241.991417,335.840556 241.125833,336.683944 241.125833,337.723667 L241.125833,350.275278 C241.125833,351.316056 241.991417,352.159444 243.057417,352.159444 L255.942583,352.159444 C257.008583,352.159444 257.874167,351.316056 257.874167,350.275278 L257.874167,337.723667 L257.874167,337.723667 Z" id="Instagram-Copy"></path>
            </g>
        </g>
    </g>
</svg>