<?xml version="1.0" encoding="UTF-8"?>
<svg width="39px" height="38px" viewBox="0 0 39 38" version="1.1" xmlns="http://www.w3.org/2000/svg" xmlns:xlink="http://www.w3.org/1999/xlink">
    <!-- Generator: Sketch 47.1 (45422) - http://www.bohemiancoding.com/sketch -->
    <title>twitter</title>
    <desc>Created with Sketch.</desc>
    <defs></defs>
    <g id="Page-1" stroke="none" stroke-width="1" fill="none" fill-rule="evenodd">
        <g id="Ver-2" transform="translate(-291.000000, -3776.000000)" fill-rule="nonzero">
            <g id="Footer" transform="translate(0.000000, 3451.000000)">
                <g id="twitter" transform="translate(291.000000, 325.000000)">
                    <ellipse id="Oval" fill="#E9C779" cx="19.500177" cy="19.0001725" rx="19.499823" ry="18.9998275"></ellipse>
                    <path d="M29.2952212,12.683912 C30.2753982,12.1117132 31.0276106,11.2063354 31.3826549,10.1257454 C30.4654867,10.6558657 29.4492035,11.0404357 28.3684956,11.2477241 C27.5026549,10.3492444 26.2690265,9.78773769 24.9030088,9.78773769 C22.2821239,9.78773769 20.1564602,11.8588972 20.1564602,14.41258 C20.1564602,14.775076 20.1985841,15.1279147 20.28,15.4666122 C16.3352212,15.2738098 12.8375221,13.4327025 10.4962832,10.6337917 C10.0877876,11.3167052 9.85345133,12.1117132 9.85345133,12.9591468 C9.85345133,14.5633038 10.6920354,15.9794872 11.9649558,16.8086408 C11.1872566,16.7848423 10.4548673,16.5768641 9.81522124,16.2295439 C9.81486726,16.2492035 9.81486726,16.2688632 9.81486726,16.2881779 C9.81486726,18.5290311 11.4516814,20.3980758 13.6226549,20.8226549 C13.2247788,20.9288859 12.8046018,20.9851055 12.3723894,20.9851055 C12.0658407,20.9851055 11.7688496,20.9564783 11.479292,20.902673 C12.0831858,22.7396415 13.8357522,24.0768414 15.9132743,24.1144361 C14.2884956,25.3550624 12.2421239,26.0941956 10.0176991,26.0941956 C9.63539823,26.0941956 9.25663717,26.0724665 8.8860177,26.0293533 C10.9854867,27.3420649 13.4810619,28.1074109 16.1614159,28.1074109 C24.8920354,28.1074109 29.6665487,21.060295 29.6665487,14.9482187 C29.6665487,14.7478285 29.6619469,14.548128 29.6527434,14.350152 C30.580885,13.69828 31.3854867,12.8839573 32.0215929,11.9565056 C31.1706195,12.3241752 30.2552212,12.5728523 29.2952212,12.683912 Z" id="Shape" fill="#212121"></path>
                </g>
            </g>
        </g>
    </g>
</svg>