<svg xmlns="http://www.w3.org/2000/svg" xmlns:xlink="http://www.w3.org/1999/xlink" viewBox="0 0 121.76 106.61"><defs><style>.cls-1{fill:none;}.cls-2{clip-path:url(#clip-path);}.cls-3{fill:url(#linear-gradient);}.cls-4{clip-path:url(#clip-path-2);}.cls-5{fill:url(#linear-gradient-2);}.cls-6{clip-path:url(#clip-path-3);}.cls-7{fill:url(#linear-gradient-3);}.cls-8{clip-path:url(#clip-path-4);}.cls-9{fill:url(#linear-gradient-4);}.cls-10{clip-path:url(#clip-path-5);}.cls-11{fill:url(#linear-gradient-5);}.cls-12{clip-path:url(#clip-path-6);}.cls-13{fill:url(#linear-gradient-6);}.cls-14{clip-path:url(#clip-path-7);}.cls-15{fill:url(#linear-gradient-7);}.cls-16{clip-path:url(#clip-path-8);}.cls-17{fill:url(#linear-gradient-8);}.cls-18{clip-path:url(#clip-path-9);}.cls-19{fill:url(#linear-gradient-9);}.cls-20{clip-path:url(#clip-path-10);}.cls-21{fill:url(#linear-gradient-10);}.cls-22{clip-path:url(#clip-path-11);}.cls-23{fill:url(#linear-gradient-11);}.cls-24{clip-path:url(#clip-path-12);}.cls-25{fill:url(#linear-gradient-12);}</style><clipPath id="clip-path"><path class="cls-1" d="M41.85,60.21h8.56L45.92,74.47l-.06.24a5.44,5.44,0,0,1-4,4.47ZM69.63,41.85a7.15,7.15,0,0,1,0,14Zm-38.55,7a8.4,8.4,0,0,1,8.38-8.38h4.59V57.21H39.46a8.39,8.39,0,0,1-8.38-8.37m16-8.38h7.81a10,10,0,0,0,7.06-2.9V60.11a9.9,9.9,0,0,0-7.06-2.9H47.05ZM64.92,68.9V28.12a.85.85,0,1,1,1.7,0V68.9a.85.85,0,1,1-1.7,0m-3-40.78V30.4a7.07,7.07,0,0,1-7.06,7.06H39.46a11.37,11.37,0,0,0-.61,22.72V82.34h1.67a8.43,8.43,0,0,0,8.29-7.08l4.74-15.05h1.31a7.05,7.05,0,0,1,7.06,7.06V68.9a3.86,3.86,0,0,0,7.71,0v-10a10.14,10.14,0,0,0,0-20V28.12a3.86,3.86,0,0,0-7.71,0"/></clipPath><linearGradient id="linear-gradient" x1="-647.05" y1="4471.38" x2="-646.05" y2="4471.38" gradientTransform="matrix(0, 132.61, 132.61, 0, -592906.04, 85817.8)" gradientUnits="userSpaceOnUse"><stop offset="0" stop-color="#0d055e"/><stop offset="1" stop-color="#732bbb"/></linearGradient><clipPath id="clip-path-2"><path class="cls-1" d="M103.32,16.94l-7.55,5.74a1.51,1.51,0,0,0,1.83,2.39l7.54-5.75a1.49,1.49,0,0,0,.28-2.1,1.51,1.51,0,0,0-1.19-.59,1.47,1.47,0,0,0-.91.31"/></clipPath><linearGradient id="linear-gradient-2" x1="-647.05" y1="4471.38" x2="-646.05" y2="4471.38" gradientTransform="matrix(0, 132.61, 132.61, 0, -592859.56, 85761.81)" xlink:href="#linear-gradient"/><clipPath id="clip-path-3"><path class="cls-1" d="M89.11,27.76l-11,8.39a1.51,1.51,0,0,0-.28,2.1,1.49,1.49,0,0,0,1.19.59,1.47,1.47,0,0,0,.91-.31l11-8.38A1.51,1.51,0,0,0,91.21,28a1.53,1.53,0,0,0-1.2-.58,1.45,1.45,0,0,0-.9.3"/></clipPath><linearGradient id="linear-gradient-3" x1="-647.05" y1="4471.38" x2="-646.05" y2="4471.38" gradientTransform="matrix(0, 132.61, 132.61, 0, -592875.34, 85780.76)" xlink:href="#linear-gradient"/><clipPath id="clip-path-4"><path class="cls-1" d="M89,38.88l-8.46,4.29A1.5,1.5,0,0,0,81.25,46a1.52,1.52,0,0,0,.68-.17l8.46-4.28A1.5,1.5,0,0,0,89,38.88"/></clipPath><linearGradient id="linear-gradient-4" x1="-647.05" y1="4471.38" x2="-646.05" y2="4471.38" gradientTransform="matrix(0, 132.61, 132.61, 0, -592874.5, 85779.43)" xlink:href="#linear-gradient"/><clipPath id="clip-path-5"><path class="cls-1" d="M108.85,28.84,96.51,35.09a1.5,1.5,0,0,0,1.35,2.68l12.35-6.26a1.49,1.49,0,0,0,.66-2,1.5,1.5,0,0,0-1.34-.83,1.52,1.52,0,0,0-.68.17"/></clipPath><linearGradient id="linear-gradient-5" x1="-647.05" y1="4471.38" x2="-646.05" y2="4471.38" gradientTransform="matrix(0, 132.61, 132.61, 0, -592856.48, 85765.5)" xlink:href="#linear-gradient"/><clipPath id="clip-path-6"><path class="cls-1" d="M95.49,72.14a1.51,1.51,0,0,0,.28,2.1L103.32,80a1.47,1.47,0,0,0,.91.31,1.51,1.51,0,0,0,.91-2.7L97.6,71.86a1.51,1.51,0,0,0-2.11.28"/></clipPath><linearGradient id="linear-gradient-6" x1="-647.05" y1="4471.38" x2="-646.05" y2="4471.38" gradientTransform="matrix(0, 132.61, 132.61, 0, -592859.67, 85782.95)" xlink:href="#linear-gradient"/><clipPath id="clip-path-7"><path class="cls-1" d="M77.81,58.68a1.51,1.51,0,0,0,.28,2.1l11,8.39a1.53,1.53,0,0,0,.9.31,1.51,1.51,0,0,0,.92-2.7l-11-8.38a1.47,1.47,0,0,0-.91-.31,1.49,1.49,0,0,0-1.19.59"/></clipPath><linearGradient id="linear-gradient-7" x1="-647.05" y1="4471.38" x2="-646.05" y2="4471.38" gradientTransform="matrix(0, 132.61, 132.61, 0, -592875.88, 85788.92)" xlink:href="#linear-gradient"/><clipPath id="clip-path-8"><path class="cls-1" d="M79.91,51.75a1.49,1.49,0,0,0,.66,2L89,58.05a1.5,1.5,0,0,0,1.36-2.68l-8.47-4.28a1.45,1.45,0,0,0-.67-.17,1.5,1.5,0,0,0-1.34.83"/></clipPath><linearGradient id="linear-gradient-8" x1="-647.05" y1="4471.38" x2="-646.05" y2="4471.38" gradientTransform="matrix(0, 132.61, 132.61, 0, -592874.3, 85787.87)" xlink:href="#linear-gradient"/><clipPath id="clip-path-9"><path class="cls-1" d="M95.85,59.82a1.5,1.5,0,0,0,.66,2l12.34,6.25a1.51,1.51,0,0,0,2-.66,1.49,1.49,0,0,0-.66-2L97.86,59.16a1.47,1.47,0,0,0-.67-.16,1.49,1.49,0,0,0-1.34.82"/></clipPath><linearGradient id="linear-gradient-9" x1="-647.05" y1="4471.38" x2="-646.05" y2="4471.38" gradientTransform="matrix(0, 132.61, 132.61, 0, -592856.04, 85780.62)" xlink:href="#linear-gradient"/><clipPath id="clip-path-10"><path class="cls-1" d="M86.64,47a1.5,1.5,0,0,0,0,3h5.09a1.5,1.5,0,0,0,0-3Z"/></clipPath><linearGradient id="linear-gradient-10" x1="-647.05" y1="4471.38" x2="-646.05" y2="4471.38" gradientTransform="matrix(0, 132.61, 132.61, 0, -592872.85, 85768.55)" xlink:href="#linear-gradient"/><clipPath id="clip-path-11"><path class="cls-1" d="M97.18,47a1.5,1.5,0,0,0,0,3h10.75a1.5,1.5,0,0,0,0-3Z"/></clipPath><linearGradient id="linear-gradient-11" x1="-647.05" y1="4471.38" x2="-646.05" y2="4471.38" gradientTransform="matrix(0, 132.61, 132.61, 0, -592855.19, 85785.85)" xlink:href="#linear-gradient"/><clipPath id="clip-path-12"><path class="cls-1" d="M114.41,47.07a1.5,1.5,0,0,0,0,3h4.4a1.5,1.5,0,0,0,0-3Z"/></clipPath><linearGradient id="linear-gradient-12" x1="-647.05" y1="4471.38" x2="-646.05" y2="4471.38" gradientTransform="matrix(0, 132.61, 132.61, 0, -592844.08, 85754.3)" xlink:href="#linear-gradient"/></defs><title>Asset 14</title><g id="Layer_2" data-name="Layer 2"><g id="Layer_1-2" data-name="Layer 1"><g class="cls-2"><rect class="cls-3" x="14.86" y="15.7" width="76.63" height="75.21" transform="translate(-21.51 62.85) rotate(-52.35)"/></g><g class="cls-4"><rect class="cls-5" x="93.65" y="14" width="13.61" height="14" transform="translate(22.47 87.72) rotate(-52.35)"/></g><g class="cls-6"><rect class="cls-7" x="75.6" y="23.97" width="17.81" height="18.36" transform="translate(6.64 79.81) rotate(-52.35)"/></g><g class="cls-8"><rect class="cls-9" x="78.96" y="35.43" width="13.03" height="13.86" transform="translate(-0.27 84.17) rotate(-52.35)"/></g><g class="cls-10"><rect class="cls-11" x="94.87" y="24.23" width="16.97" height="18.15" transform="translate(13.86 94.8) rotate(-52.35)"/></g><g class="cls-12"><rect class="cls-13" x="93.65" y="68.92" width="13.61" height="14" transform="translate(-21.02 109.09) rotate(-52.35)"/></g><g class="cls-14"><rect class="cls-15" x="75.6" y="54.6" width="17.81" height="18.36" transform="translate(-17.61 91.74) rotate(-52.35)"/></g><g class="cls-16"><rect class="cls-17" x="78.96" y="47.64" width="13.03" height="13.86" transform="translate(-9.94 88.92) rotate(-52.35)"/></g><g class="cls-18"><rect class="cls-19" x="94.88" y="54.56" width="16.96" height="18.14" transform="translate(-10.15 106.6) rotate(-52.35)"/></g><g class="cls-20"><rect class="cls-21" x="85.53" y="44.39" width="7.32" height="8.24" transform="translate(-3.7 89.5) rotate(-52.35)"/></g><g class="cls-22"><rect class="cls-23" x="97.17" y="42.15" width="10.77" height="12.72" transform="translate(1.51 100.08) rotate(-52.35)"/></g><g class="cls-24"><rect class="cls-25" x="113.16" y="44.72" width="6.89" height="7.69" transform="translate(6.93 111.23) rotate(-52.35)"/></g></g></g></svg>