<?xml version="1.0" encoding="iso-8859-1"?>
<!-- Generator: Adobe Illustrator 19.0.0, SVG Export Plug-In . SVG Version: 6.00 Build 0)  -->
<svg xmlns="http://www.w3.org/2000/svg" xmlns:xlink="http://www.w3.org/1999/xlink" version="1.1" id="Capa_1" x="0px" y="0px" viewBox="0 0 512 512" style="enable-background:new 0 0 512 512;" xml:space="preserve" width="512px" height="512px">
<g>
	<g>
		<path d="M512,145.311v-30h-43.666V82.454l-38.787-38.787h-32.858V0h-30v43.667h-53.792V0h-30v43.667h-53.792V0h-30v43.667h-53.792    V0h-30v43.667H82.454L43.667,82.454v32.858H0v30h43.667v53.792H0v30h43.667v53.793H0v30h43.667v53.792H0v30h43.667v32.858    l38.787,38.787h32.858V512h30v-43.667h53.792V512h30v-43.667h53.792V512h30v-43.667h53.792V512h30v-43.667h32.858l38.787-38.787    v-32.858H512v-30h-43.666v-53.792H512v-30h-43.666v-53.793H512v-30h-43.666v-53.792H512z M438.334,417.12l-21.213,21.213H94.88    L73.667,417.12V94.88L94.88,73.667h322.241l21.213,21.213V417.12z" fill="#0157bb"/>
	</g>
</g>
<g>
	<g>
		<path d="M326.392,243.823v-39.097h0.001c0-38.814-31.578-70.393-70.393-70.393c-38.814,0-70.393,31.578-70.393,70.393v39.097    h-30.104v122.526h200.993V243.823H326.392z M256,164.333c22.273,0,40.393,18.12,40.393,40.393v39.097h-80.785v-39.097h-0.001    C215.607,182.453,233.727,164.333,256,164.333z M326.497,336.349H185.504v-62.526H241v30.731h30v-30.731h55.497V336.349z" fill="#0157bb"/>
	</g>
</g>
<g>
</g>
<g>
</g>
<g>
</g>
<g>
</g>
<g>
</g>
<g>
</g>
<g>
</g>
<g>
</g>
<g>
</g>
<g>
</g>
<g>
</g>
<g>
</g>
<g>
</g>
<g>
</g>
<g>
</g>
</svg>
