<?xml version="1.0" encoding="iso-8859-1"?>
<!-- Generator: Adobe Illustrator 19.0.0, SVG Export Plug-In . SVG Version: 6.00 Build 0)  -->
<svg xmlns="http://www.w3.org/2000/svg" xmlns:xlink="http://www.w3.org/1999/xlink" version="1.1" id="Layer_1" x="0px" y="0px" viewBox="0 0 512 512" style="enable-background:new 0 0 512 512;" xml:space="preserve" width="512px" height="512px">
<g>
	<g>
		<path d="M439.257,380.665c9.239-23.15,13.926-47.602,13.926-72.859c0-108.727-88.456-197.181-197.182-197.181    S58.818,199.08,58.818,307.806c0,25.257,4.687,49.709,13.926,72.859H6.37V512h499.26V380.665H439.257z M256.001,125.847    c100.333,0,181.959,81.627,181.959,181.958c0,26.982-5.779,52.968-17.178,77.234c-8.231,17.522-19.1,33.486-32.361,47.545    c-0.884,0.938-1.779,1.866-2.684,2.787h-15.28c35.993-32.311,56.951-78.556,56.951-127.567    c0-94.515-76.893-171.407-171.407-171.407S84.594,213.291,84.594,307.806c0,49.011,20.958,95.255,56.951,127.567h-15.28    c-0.905-0.921-1.8-1.849-2.684-2.787c-13.261-14.06-24.131-30.025-32.361-47.545c-11.398-24.266-17.178-50.252-17.178-77.234    C74.041,207.474,155.668,125.847,256.001,125.847z M346.12,435.373h-180.24c-41.412-29.307-66.063-76.816-66.063-127.567    c0-86.121,70.064-156.184,156.184-156.184s156.184,70.064,156.184,156.184C412.184,358.555,387.533,406.065,346.12,435.373z     M490.408,496.777H21.593V395.888h57.968c0.417,0.834,0.847,1.659,1.275,2.486c0.187,0.361,0.368,0.727,0.557,1.086    c0.655,1.246,1.322,2.484,2.002,3.713c0.189,0.341,0.386,0.678,0.576,1.018c0.499,0.891,1.001,1.781,1.513,2.664    c0.276,0.475,0.561,0.945,0.841,1.417c0.438,0.741,0.877,1.482,1.324,2.216c0.312,0.509,0.63,1.014,0.946,1.521    c0.43,0.691,0.861,1.382,1.299,2.067c0.333,0.519,0.672,1.033,1.009,1.55c0.434,0.665,0.869,1.328,1.311,1.987    c0.35,0.522,0.705,1.039,1.061,1.557c0.443,0.646,0.888,1.292,1.338,1.932c0.362,0.516,0.73,1.028,1.097,1.541    c0.457,0.637,0.916,1.272,1.381,1.904c0.372,0.506,0.747,1.01,1.124,1.512c0.473,0.63,0.95,1.257,1.431,1.882    c0.381,0.495,0.763,0.988,1.149,1.48c0.49,0.624,0.985,1.245,1.484,1.863c0.388,0.482,0.776,0.964,1.169,1.443    c0.51,0.622,1.028,1.24,1.547,1.856c0.219,0.261,0.434,0.527,0.656,0.786H70.303v15.223h49.694h41.135h189.736h41.135h49.694    V435.37H406.35c0.22-0.26,0.434-0.524,0.654-0.784c0.519-0.617,1.037-1.235,1.548-1.858c0.393-0.479,0.78-0.961,1.169-1.443    c0.498-0.619,0.994-1.239,1.484-1.863c0.386-0.491,0.768-0.985,1.149-1.48c0.481-0.624,0.958-1.251,1.431-1.882    c0.378-0.502,0.752-1.007,1.124-1.512c0.465-0.631,0.925-1.267,1.381-1.904c0.367-0.513,0.734-1.025,1.097-1.541    c0.451-0.641,0.895-1.286,1.338-1.932c0.355-0.518,0.71-1.036,1.061-1.557c0.443-0.659,0.877-1.323,1.311-1.987    c0.337-0.516,0.677-1.03,1.009-1.55c0.439-0.687,0.871-1.379,1.302-2.072c0.315-0.504,0.632-1.007,0.942-1.514    c0.45-0.738,0.89-1.482,1.331-2.226c0.279-0.47,0.562-0.937,0.837-1.41c0.514-0.883,1.014-1.773,1.513-2.664    c0.191-0.34,0.388-0.677,0.576-1.018c0.68-1.23,1.348-2.468,2.002-3.713c0.189-0.36,0.37-0.725,0.557-1.086    c0.428-0.827,0.859-1.652,1.275-2.486h57.968V496.777z" fill="#0157bb"/>
	</g>
</g>
<g>
	<g>
		<path d="M256.001,209.044c-54.458,0-98.762,44.304-98.762,98.762c0,54.458,44.304,98.762,98.762,98.762    s98.762-44.304,98.762-98.762C354.762,253.348,310.458,209.044,256.001,209.044z M256.001,391.346    c-46.064,0-83.539-37.476-83.539-83.539s37.476-83.539,83.539-83.539s83.539,37.476,83.539,83.539    S302.064,391.346,256.001,391.346z" fill="#0157bb"/>
	</g>
</g>
<g>
	<g>
		<path d="M293.742,318.453c-1.547-3.232-3.745-6.01-6.594-8.328c-2.85-2.318-6.327-4.249-10.431-5.795    c-3.943-1.483-8.32-2.875-13.106-4.182v-25.552c0.482,0.104,0.964,0.201,1.444,0.325c2.992,0.774,5.771,1.715,8.33,2.825    c2.558,1.111,4.731,2.245,6.52,3.404c1.787,1.159,3.018,2.078,3.695,2.752l8.837-16.226c-4.542-3.09-9.851-5.771-15.936-8.041    c-4.038-1.506-8.339-2.502-12.889-3.008v-16.283H248.39v16.501c-2.243,0.348-4.416,0.839-6.513,1.486    c-4.542,1.401-8.525,3.455-11.952,6.157c-3.429,2.706-6.11,6.085-8.041,10.142c-1.933,4.056-2.897,8.692-2.897,13.909    c0,3.961,0.603,7.366,1.811,10.214c1.207,2.851,3.018,5.361,5.434,7.533c2.413,2.174,5.434,4.056,9.056,5.65    c3.621,1.593,7.895,3.067,12.822,4.419c0.096,0.027,0.187,0.054,0.283,0.081v25.514c-0.578-0.125-1.159-0.24-1.732-0.387    c-3.767-0.964-7.196-2.148-10.287-3.55c-3.092-1.398-5.773-2.8-8.041-4.202c-2.27-1.398-3.839-2.535-4.709-3.405l-8.837,17.241    c5.987,4.251,12.75,7.533,20.282,9.851c4.409,1.356,8.85,2.304,13.323,2.867v16.698h15.223v-16.358    c2.999-0.263,5.926-0.711,8.76-1.396c4.587-1.109,8.644-2.873,12.169-5.287c3.525-2.413,6.325-5.578,8.403-9.49    c2.075-3.911,3.115-8.62,3.115-14.126C296.06,325.674,295.285,321.69,293.742,318.453z M248.388,295.69    c-1.057-0.434-2.033-0.885-2.891-1.358c-1.932-1.062-3.404-2.293-4.419-3.694c-1.014-1.398-1.521-3.162-1.521-5.287    c0-3.67,1.352-6.52,4.056-8.548c1.276-0.957,2.875-1.68,4.775-2.185V295.69z M263.612,342.67v-21.63    c1.426,0.539,2.73,1.101,3.907,1.69c2.318,1.159,4.104,2.513,5.361,4.056c1.253,1.546,1.883,3.429,1.883,5.651    C274.762,338.228,271.041,341.635,263.612,342.67z" fill="#0157bb"/>
	</g>
</g>
<g>
	<g>
		<rect x="199.188" y="13.193" width="15.223" height="88.09" fill="#0157bb"/>
	</g>
</g>
<g>
	<g>
		<rect x="248.389" width="15.223" height="88.09" fill="#0157bb"/>
	</g>
</g>
<g>
	<g>
		<rect x="297.59" y="13.193" width="15.223" height="88.09" fill="#0157bb"/>
	</g>
</g>
<g>
</g>
<g>
</g>
<g>
</g>
<g>
</g>
<g>
</g>
<g>
</g>
<g>
</g>
<g>
</g>
<g>
</g>
<g>
</g>
<g>
</g>
<g>
</g>
<g>
</g>
<g>
</g>
<g>
</g>
</svg>
