<svg xmlns="http://www.w3.org/2000/svg" width="30" height="30" viewBox="0 0 30 30">
    <path fill="#ADBBC4" fill-rule="evenodd" d="M8.66 7.996c0-3.463 2.844-6.28 6.34-6.28s6.341 2.817 6.341 6.28-2.845 6.28-6.341 6.28-6.34-2.817-6.34-6.28m10.452 6.87c2.367-1.396 3.961-3.949 3.961-6.87C23.073 3.586 19.453 0 15 0c-4.451 0-8.073 3.586-8.073 7.996 0 2.921 1.594 5.474 3.961 6.87C4.612 16.642 0 22.363 0 29.142c0 .474.387.858.866.858a.861.861 0 0 0 .866-.858C1.732 21.896 7.685 16 15 16c7.316 0 13.269 5.896 13.269 13.142 0 .474.387.858.866.858a.862.862 0 0 0 .866-.858c0-6.78-4.612-12.5-10.89-14.276" opacity=".5"/>
</svg>
