<svg width="70px" xmlns="http://www.w3.org/2000/svg" xmlns:xlink="http://www.w3.org/1999/xlink" viewBox="0 0 70.19 70.21"><defs><style>.cls-1{fill:url(#linear-gradient);}.cls-2{fill-rule:evenodd;fill:url(#linear-gradient-2);}</style><linearGradient id="linear-gradient" x1="3.69" y1="-24.21" x2="75.69" y2="111.79" gradientUnits="userSpaceOnUse"><stop offset="0" stop-color="#2297e6"/><stop offset="1" stop-color="#732bbb"/></linearGradient><linearGradient id="linear-gradient-2" x1="3.88" y1="-24.31" x2="75.88" y2="111.69" xlink:href="#linear-gradient"/></defs><title>Asset 3</title><g id="Layer_2" data-name="Layer 2"><g id="Layer_1-2" data-name="Layer 1"><path class="cls-1" d="M35.1,0A35.1,35.1,0,1,1,10.28,10.28,35.05,35.05,0,0,1,35.1,0ZM58,12.22a32.35,32.35,0,1,0,9.48,22.89A32.23,32.23,0,0,0,58,12.22Z"/><path class="cls-2" d="M53,24.17a15.67,15.67,0,0,1-4.22,1.15,7.25,7.25,0,0,0,3.25-4,15,15,0,0,1-4.68,1.77A7.38,7.38,0,0,0,34.63,28a7.56,7.56,0,0,0,.21,1.65A20.87,20.87,0,0,1,19.69,22.1a7.14,7.14,0,0,0,2.25,9.66,7.12,7.12,0,0,1-3.32-.89V31a6.85,6.85,0,0,0,.5,2.6A7.33,7.33,0,0,0,24.53,38a7.22,7.22,0,0,1-1.94.27,6.56,6.56,0,0,1-1.38-.16,7.41,7.41,0,0,0,6.86,5.05,14.87,14.87,0,0,1-9.12,3.09c-.6,0-1.17,0-1.77-.1a21.22,21.22,0,0,0,11.27,3.25A20.45,20.45,0,0,0,48.87,33.23a19.89,19.89,0,0,0,.49-4.37v-.93A15.21,15.21,0,0,0,53,24.17Z"/></g></g></svg>