<svg width="70px" xmlns="http://www.w3.org/2000/svg" xmlns:xlink="http://www.w3.org/1999/xlink" viewBox="0 0 70.19 70.19"><defs><style>.cls-1{fill:url(#linear-gradient);}.cls-2{fill-rule:evenodd;fill:url(#linear-gradient-2);}</style><linearGradient id="linear-gradient" x1="12.9" y1="-13.15" x2="59.55" y2="88.25" gradientUnits="userSpaceOnUse"><stop offset="0" stop-color="#2297e6"/><stop offset="1" stop-color="#732bbb"/></linearGradient><linearGradient id="linear-gradient-2" x1="10.29" y1="-11.95" x2="56.94" y2="89.45" xlink:href="#linear-gradient"/></defs><title>Asset 4</title><g id="Layer_2" data-name="Layer 2"><g id="Layer_1-2" data-name="Layer 1"><path class="cls-1" d="M35.1,0A35.1,35.1,0,1,1,10.28,10.28,35,35,0,0,1,35.1,0ZM58,12.22A32.35,32.35,0,1,0,67.45,35.1,32.25,32.25,0,0,0,58,12.22Z"/><path class="cls-2" d="M53,34.2a17.58,17.58,0,0,0-35.14-.33,4.84,4.84,0,0,0,0,.76,17.43,17.43,0,0,0,2.53,9L17.16,53l9.76-3.09A17.64,17.64,0,0,0,53,34.63c0-.15,0-.27,0-.43Zm-9.52,4C43,38,40.93,36.9,40.54,36.75s-.7-.21-1,.23a18.49,18.49,0,0,1-1.36,1.65c-.25.31-.51.33-.91.14a10.92,10.92,0,0,1-3.48-2.14,12.71,12.71,0,0,1-2.41-2.94c-.23-.47,0-.66.17-.91a5.07,5.07,0,0,0,.66-.74.74.74,0,0,0,.16-.19,4.22,4.22,0,0,0,.27-.51.67.67,0,0,0,0-.74c-.08-.21-1-2.35-1.32-3.19s-.72-.72-1-.72-.54,0-.84,0a1.48,1.48,0,0,0-1.15.54,4.61,4.61,0,0,0-1.54,3.58,4.47,4.47,0,0,0,.25,1.44,9.55,9.55,0,0,0,1.52,3c.21.29,3,4.74,7.36,6.45s4.41,1.13,5.19,1.07a4.29,4.29,0,0,0,2.92-2,3.5,3.5,0,0,0,.23-2,2.46,2.46,0,0,0-.82-.47ZM35.41,49.32a14.74,14.74,0,0,1-8.12-2.43L21.61,48.7l1.83-5.46a14.55,14.55,0,0,1-2.82-8.61,11.61,11.61,0,0,1,.08-1.42,14.8,14.8,0,0,1,29.46.27,11.31,11.31,0,0,1,0,1.15A14.76,14.76,0,0,1,35.41,49.32Z"/></g></g></svg>