<svg width="70px" xmlns="http://www.w3.org/2000/svg" xmlns:xlink="http://www.w3.org/1999/xlink" viewBox="0 0 70.19 70.21"><defs><style>.cls-1{fill:url(#linear-gradient);}.cls-2{fill-rule:evenodd;fill:url(#linear-gradient-2);}</style><linearGradient id="linear-gradient" x1="12.58" y1="-2.15" x2="68.35" y2="90.12" gradientUnits="userSpaceOnUse"><stop offset="0" stop-color="#2297e6"/><stop offset="1" stop-color="#732bbb"/></linearGradient><linearGradient id="linear-gradient-2" x1="12.59" y1="-2.15" x2="68.36" y2="90.12" xlink:href="#linear-gradient"/></defs><title>Asset 7</title><g id="Layer_2" data-name="Layer 2"><g id="Layer_1-2" data-name="Layer 1"><path class="cls-1" d="M35.1,0A35.1,35.1,0,1,1,10.28,10.28,35,35,0,0,1,35.1,0ZM58,12.22a32.35,32.35,0,1,0,9.48,22.89A32.24,32.24,0,0,0,58,12.22Z"/><path class="cls-2" d="M52.66,27.63S52.3,25,51.23,23.92a5.13,5.13,0,0,0-3.57-1.59C42.64,22,35.12,22,35.12,22h0s-7.5,0-12.52.37A5.11,5.11,0,0,0,19,23.92c-1.07,1.13-1.44,3.71-1.44,3.71a57.08,57.08,0,0,0-.37,6v2.86a56.13,56.13,0,0,0,.37,6A8.55,8.55,0,0,0,19,46.27a5.87,5.87,0,0,0,4,1.59c2.86.29,12.18.39,12.18.39s7.52,0,12.53-.39a5,5,0,0,0,3.57-1.59,8.54,8.54,0,0,0,1.44-3.73,59.4,59.4,0,0,0,.35-6V33.66c0-3-.35-6-.35-6ZM41.08,34.71l-9.7,5.23V29.44l4.39,2.39Z"/></g></g></svg>