<svg width="70px" xmlns="http://www.w3.org/2000/svg" xmlns:xlink="http://www.w3.org/1999/xlink" viewBox="0 0 70.19 70.19"><defs><style>.cls-1{fill:url(#linear-gradient);}.cls-2{fill-rule:evenodd;fill:url(#linear-gradient-2);}</style><linearGradient id="linear-gradient" x1="11.36" y1="-2" x2="76.25" y2="99.4" gradientUnits="userSpaceOnUse"><stop offset="0" stop-color="#2297e6"/><stop offset="1" stop-color="#732bbb"/></linearGradient><linearGradient id="linear-gradient-2" x1="11.36" y1="-2" x2="76.26" y2="99.4" xlink:href="#linear-gradient"/></defs><title>Asset 6</title><g id="Layer_2" data-name="Layer 2"><g id="Layer_1-2" data-name="Layer 1"><path class="cls-1" d="M35.1,0A35.1,35.1,0,1,1,10.28,10.28,34.93,34.93,0,0,1,35.1,0ZM58,12.22A32.4,32.4,0,1,0,67.45,35.1,32.33,32.33,0,0,0,58,12.22Z"/><path class="cls-2" d="M26.12,35.1a9,9,0,1,1,9,9,9,9,0,0,1-9-9ZM44.39,17.51H25.83a8.34,8.34,0,0,0-8.32,8.32V44.39a8.35,8.35,0,0,0,8.32,8.32H44.39a8.34,8.34,0,0,0,8.32-8.32V25.83a8.33,8.33,0,0,0-8.32-8.32ZM25.83,19.59H44.39a6.24,6.24,0,0,1,6.24,6.24V44.39a6.24,6.24,0,0,1-6.24,6.24H25.83a6.24,6.24,0,0,1-6.24-6.24V25.83a6.24,6.24,0,0,1,6.24-6.24Zm20.4,2.62A1.83,1.83,0,1,0,48.06,24a1.82,1.82,0,0,0-1.83-1.83Zm.21,12.88A11.35,11.35,0,1,0,35.1,46.45,11.35,11.35,0,0,0,46.45,35.1Z"/></g></g></svg>