<svg width="70px" xmlns="http://www.w3.org/2000/svg" xmlns:xlink="http://www.w3.org/1999/xlink" viewBox="0 0 70.19 70.19"><defs><style>.cls-1{fill:url(#linear-gradient);}.cls-2{fill-rule:evenodd;fill:url(#linear-gradient-2);}</style><linearGradient id="linear-gradient" x1="8.03" y1="-0.73" x2="76.98" y2="90.53" gradientUnits="userSpaceOnUse"><stop offset="0" stop-color="#2297e6"/><stop offset="1" stop-color="#732bbb"/></linearGradient><linearGradient id="linear-gradient-2" x1="9.14" y1="-1.57" x2="78.1" y2="89.69" xlink:href="#linear-gradient"/></defs><title>Asset 5</title><g id="Layer_2" data-name="Layer 2"><g id="Layer_1-2" data-name="Layer 1"><path class="cls-1" d="M35.1,0A35.1,35.1,0,1,1,10.28,10.28,35,35,0,0,1,35.1,0ZM58,12.22A32.4,32.4,0,1,0,67.45,35.1,32.33,32.33,0,0,0,58,12.22Z"/><path class="cls-2" d="M37.78,27.93V25a1.51,1.51,0,0,1,1.57-1.71h4V17.2H37.84c-6.16,0-7.54,4.55-7.54,7.5v3.23H26.72V35.1h3.61V53h7.17V35.1h5.31L43,32.28l.43-4.35Z"/></g></g></svg>