<svg width="70px" xmlns="http://www.w3.org/2000/svg" xmlns:xlink="http://www.w3.org/1999/xlink" viewBox="0 0 70.19 70.17"><defs><style>.cls-1{fill:url(#linear-gradient);}.cls-2{fill-rule:evenodd;fill:url(#linear-gradient-2);} </style><linearGradient id="linear-gradient" x1="1.73" y1="-11.73" x2="65.11" y2="77.2" gradientUnits="userSpaceOnUse"><stop offset="0" stop-color="#2297e6"/><stop offset="1" stop-color="#732bbb"/></linearGradient><linearGradient id="linear-gradient-2" x1="4.48" y1="-13.7" x2="67.87" y2="75.23" xlink:href="#linear-gradient"/></defs><title>Asset 2</title><g id="Layer_2" data-name="Layer 2"><g id="Layer_1-2" data-name="Layer 1"><path class="cls-1" d="M35.11,0A35.09,35.09,0,1,1,10.28,10.28,35,35,0,0,1,35.11,0ZM58,12.22a32.34,32.34,0,1,0,9.48,22.87A32.28,32.28,0,0,0,58,12.22Z"/><path class="cls-2" d="M38,23c-.78-.1-1.77-.43-1.94.6s.91,1,1.63,1.15c4.9,1.07,6.57,2.82,7.38,7.56a3.7,3.7,0,0,1,.06.66c.06.56.19,1.07,1,.91a.61.61,0,0,0,.6-.62c.06-.29,0-.68,0-1,0-4.57-4-8.7-8.82-9.31Zm.45,3.75c-.51,0-1,.06-1.2.6-.29.78.31,1,.91,1.09a3.5,3.5,0,0,1,3.26,3.4,1.35,1.35,0,0,0,.23.66.76.76,0,0,0,.66.25.93.93,0,0,0,.43-.12,1.32,1.32,0,0,0,.35-1.2c0-2.19-2.49-4.74-4.64-4.68ZM48.55,42.18c-1-.78-2.08-1.48-3.09-2.2-2.08-1.4-4-1.51-5.52.76a2.46,2.46,0,0,1-3.36.78,14.56,14.56,0,0,1-7.81-7.44,4.5,4.5,0,0,1-.41-1.55,2.67,2.67,0,0,1,1.38-2.47,2.82,2.82,0,0,0,1.67-2.51c-.08-1.65-4.16-7.15-5.79-7.75a3.21,3.21,0,0,0-2,0c-3.79,1.26-5.34,4.29-3.85,7.89A41.48,41.48,0,0,0,42.94,50.51a8.92,8.92,0,0,0,1.65.45c2.47,0,5.34-2.31,6.18-4.61s-.89-3.09-2.22-4.18ZM36.41,20.91C44.32,22.11,47.95,25.8,49,33.59v.19c.06.72-.08,1.65.87,1.65s.87-.6.87-1.2a2.94,2.94,0,0,1,0-.56c.1-7.36-6.45-14.2-14-14.44-.6.1-1.77-.39-1.86.87,0,.84,1,.72,1.63.8Z"/></g></g></svg>