<svg xmlns="http://www.w3.org/2000/svg" width="20" height="19" viewBox="0 0 20 19">
    <defs>
        <linearGradient id="a" x1="100%" x2="0%" y1="100%" y2="0%">
            <stop offset="0%" stop-color="#B7CE63"/>
            <stop offset="100%" stop-color="#06BEBD"/>
        </linearGradient>
    </defs>
    <g fill="none" fill-rule="evenodd">
        <path fill="url(#a)" d="M10 7.856l-1.763.876.336-1.855-1.426-1.313 1.971-.27L10 3.605l.882 1.687 1.971.27-1.426 1.314.336 1.855zM17 7.856l-1.763.876.336-1.855-1.426-1.313 1.971-.27L17 3.605l.882 1.687 1.971.27-1.426 1.314.336 1.855z" transform="translate(-3 1)"/>
        <path stroke="#667190" stroke-linecap="round" stroke-linejoin="round" d="M14.638 14.379l-4.69 4.86v-4.86H3.26A2.26 2.26 0 0 1 1 12.119V2.76A2.26 2.26 0 0 1 3.26.5h13.98a2.26 2.26 0 0 1 2.26 2.26v9.359a2.26 2.26 0 0 1-2.26 2.26h-2.602z"/>
    </g>
</svg>
