<svg xmlns="http://www.w3.org/2000/svg" xmlns:xlink="http://www.w3.org/1999/xlink" viewBox="0 0 1443.34 1070.61"><defs><style>.cls-1{fill:none;}.cls-2{fill:url(#linear-gradient);}.cls-3{clip-path:url(#clip-path);}.cls-4{fill:url(#radial-gradient);}.cls-5{fill:url(#radial-gradient-2);}</style><linearGradient id="linear-gradient" x1="598.89" y1="807.61" x2="985.92" y2="-896.08" gradientTransform="matrix(1, 0, 0, -1, 0, 808.32)" gradientUnits="userSpaceOnUse"><stop offset="0" stop-color="#0d055e"/><stop offset="1" stop-color="#732bba"/></linearGradient><clipPath id="clip-path" transform="translate(0 -5.99)"><path class="cls-1" d="M4.35,0S207.94,25.27,725.94,25.27,1446.35,0,1446.35,0V1076.61H4.35Z"/></clipPath><radialGradient id="radial-gradient" cx="-5275.81" cy="5153.91" r="813.43" gradientTransform="matrix(-0.91, 0.41, 0.41, 0.91, -6488.4, -2283.31)" gradientUnits="userSpaceOnUse"><stop offset="0" stop-color="#fff" stop-opacity="0"/><stop offset="0.24" stop-color="#fff" stop-opacity="0.01"/><stop offset="0.37" stop-color="#fff" stop-opacity="0.04"/><stop offset="0.49" stop-color="#fff" stop-opacity="0.1"/><stop offset="0.58" stop-color="#fff" stop-opacity="0.17"/><stop offset="0.67" stop-color="#fff" stop-opacity="0.28"/><stop offset="0.75" stop-color="#fff" stop-opacity="0.4"/><stop offset="0.83" stop-color="#fff" stop-opacity="0.55"/><stop offset="0.9" stop-color="#fff" stop-opacity="0.72"/><stop offset="0.97" stop-color="#fff" stop-opacity="0.91"/><stop offset="1" stop-color="#fff"/></radialGradient><radialGradient id="radial-gradient-2" cx="1098.18" cy="320.91" r="703.3" gradientTransform="matrix(1, 0, 0, -1, 0, 808.32)" xlink:href="#radial-gradient"/></defs><title>Asset 2</title><g id="Layer_2" data-name="Layer 2"><g id="Layer_1-2" data-name="Layer 1"><g id="Layer_2-2" data-name="Layer 2"><g id="Layer_1-2-2" data-name="Layer 1-2"><path class="cls-2" d="M.05,6S203.64,31.26,721.64,31.26,1443.34,6,1443.34,6V1076.6H.05Z" transform="translate(0 -5.99)"/><g class="cls-3"><path class="cls-4" d="M3.05,8.16c278.67,0,719.28,18.7,719.28,18.7,0,278.67-225.91,504.58-504.58,504.58A502.65,502.65,0,0,1,0,482.17Z" transform="translate(0 -5.99)"/><path class="cls-5" d="M1415.21,170.69q13.92,0,27.68.67l.16,904.62-466.17-.2C903.8,981.43,857.3,857.19,857.3,728.6,857.3,420.47,1107.08,170.69,1415.21,170.69Z" transform="translate(0 -5.99)"/></g></g></g></g></g></svg>