<svg xmlns="http://www.w3.org/2000/svg" xmlns:xlink="http://www.w3.org/1999/xlink" viewBox="0 0 637.27 1377.5"><defs><style>.cls-1{fill:url(#radial-gradient);}.cls-2{fill:url(#radial-gradient-2);}.cls-3{fill:#2296e5;}.cls-4,.cls-47,.cls-51,.cls-66{font-size:16px;font-family:MyriadPro-Regular, Myriad Pro;}.cls-4{fill:#27a9e0;}.cls-5{letter-spacing:0em;}.cls-6{letter-spacing:0.01em;}.cls-7{letter-spacing:-0.06em;}.cls-8{font-size:24px;}.cls-9{letter-spacing:-0.01em;}.cls-10{letter-spacing:0.01em;}.cls-11{letter-spacing:0.02em;}.cls-12{letter-spacing:-0.01em;}.cls-13{letter-spacing:-0.01em;}.cls-14{letter-spacing:0em;}.cls-15{letter-spacing:0em;}.cls-16{letter-spacing:-0.01em;}.cls-17{letter-spacing:0em;}.cls-18{letter-spacing:0em;}.cls-19{letter-spacing:-0.01em;}.cls-20{letter-spacing:0em;}.cls-21{letter-spacing:-0.07em;}.cls-22{letter-spacing:-0.04em;}.cls-23{letter-spacing:-0.05em;}.cls-24{letter-spacing:0em;}.cls-25{letter-spacing:-0.01em;}.cls-26{letter-spacing:-0.04em;}.cls-27{letter-spacing:0.03em;}.cls-28{letter-spacing:0.04em;}.cls-29{fill:url(#radial-gradient-3);}.cls-30{letter-spacing:-0.01em;}.cls-31{letter-spacing:-0.02em;}.cls-32{letter-spacing:-0.01em;}.cls-33{letter-spacing:0.03em;}.cls-34{letter-spacing:0em;}.cls-35{letter-spacing:-0.01em;}.cls-36{fill:url(#radial-gradient-4);}.cls-37{letter-spacing:-0.02em;}.cls-38{letter-spacing:-0.03em;}.cls-39{letter-spacing:0em;}.cls-40{letter-spacing:0.02em;}.cls-41{letter-spacing:0.01em;}.cls-42{letter-spacing:0em;}.cls-43{letter-spacing:-0.04em;}.cls-44{letter-spacing:-0.01em;}.cls-45{letter-spacing:0em;}.cls-46{fill:url(#radial-gradient-5);}.cls-47{fill:#d9a30f;}.cls-48{letter-spacing:0.01em;}.cls-49{letter-spacing:0.02em;}.cls-50{fill:url(#radial-gradient-6);}.cls-51{fill:#fcfcfc;}.cls-52{letter-spacing:-0.06em;}.cls-53{fill:url(#radial-gradient-7);}.cls-54{letter-spacing:-0.03em;}.cls-55{letter-spacing:0.01em;}.cls-56{fill:url(#radial-gradient-8);}.cls-57{letter-spacing:-0.01em;}.cls-58{fill:url(#radial-gradient-9);}.cls-59{letter-spacing:-0.03em;}.cls-60{letter-spacing:0.01em;}.cls-61{letter-spacing:-0.01em;}.cls-62{letter-spacing:0em;}.cls-63{fill:url(#radial-gradient-10);}.cls-64{letter-spacing:0.02em;}.cls-65{letter-spacing:-0.01em;}.cls-66{fill:#fff;}.cls-67{letter-spacing:-0.01em;}.cls-68{letter-spacing:-0.03em;}.cls-69{letter-spacing:-0.01em;}.cls-70{letter-spacing:-0.08em;}.cls-71{letter-spacing:0.05em;}.cls-72{letter-spacing:-0.05em;}.cls-73{letter-spacing:0.01em;}.cls-74{letter-spacing:-0.02em;}.cls-75{letter-spacing:-0.01em;}.cls-76{fill:url(#radial-gradient-11);}.cls-77{letter-spacing:0em;}.cls-78{fill:url(#radial-gradient-12);}.cls-79{fill:url(#radial-gradient-13);}.cls-80{letter-spacing:0.01em;}.cls-81{letter-spacing:0.02em;}.cls-82{letter-spacing:0.03em;}.cls-83{fill:url(#radial-gradient-14);}.cls-84{fill:url(#radial-gradient-15);}.cls-85{letter-spacing:0em;}.cls-86{letter-spacing:-0.01em;}.cls-87{letter-spacing:0.02em;}.cls-88{letter-spacing:-0.01em;}.cls-89{letter-spacing:-0.01em;}.cls-90{letter-spacing:-0.02em;}.cls-91{fill:url(#radial-gradient-16);}.cls-92{fill:url(#radial-gradient-17);}.cls-93{fill:url(#radial-gradient-18);}.cls-94{letter-spacing:-0.03em;}.cls-95{letter-spacing:-0.01em;}.cls-96{letter-spacing:0em;}.cls-97{fill:url(#radial-gradient-19);}.cls-98{fill:url(#radial-gradient-20);}.cls-99{fill:url(#radial-gradient-21);}.cls-100{letter-spacing:0.01em;}.cls-101{letter-spacing:-0.07em;}.cls-102{letter-spacing:0.01em;}</style><radialGradient id="radial-gradient" cx="97.59" cy="24.49" r="72.01" gradientTransform="translate(55.15 -63.15) rotate(45)" gradientUnits="userSpaceOnUse"><stop offset="0" stop-color="#fff" stop-opacity="0"/><stop offset="0.24" stop-color="#fff" stop-opacity="0.01"/><stop offset="0.37" stop-color="#fff" stop-opacity="0.04"/><stop offset="0.49" stop-color="#fff" stop-opacity="0.1"/><stop offset="0.58" stop-color="#fff" stop-opacity="0.17"/><stop offset="0.67" stop-color="#fff" stop-opacity="0.28"/><stop offset="0.75" stop-color="#fff" stop-opacity="0.4"/><stop offset="0.83" stop-color="#fff" stop-opacity="0.55"/><stop offset="0.9" stop-color="#fff" stop-opacity="0.72"/><stop offset="0.97" stop-color="#fff" stop-opacity="0.91"/><stop offset="1" stop-color="#fff"/></radialGradient><radialGradient id="radial-gradient-2" cx="285.68" cy="24.69" r="72.01" gradientTransform="translate(110.39 -196.09) rotate(45)" xlink:href="#radial-gradient"/><radialGradient id="radial-gradient-3" cx="473.68" cy="24.69" r="72.01" gradientTransform="translate(165.45 -329.03) rotate(45)" xlink:href="#radial-gradient"/><radialGradient id="radial-gradient-4" cx="96.68" cy="223.69" r="72.01" gradientTransform="translate(195.74 -4.16) rotate(45)" xlink:href="#radial-gradient"/><radialGradient id="radial-gradient-5" cx="283.68" cy="223.69" r="72.01" gradientTransform="translate(250.51 -136.39) rotate(45)" xlink:href="#radial-gradient"/><radialGradient id="radial-gradient-6" cx="96.68" cy="422.69" r="72.01" gradientTransform="translate(336.46 54.12) rotate(45)" xlink:href="#radial-gradient"/><radialGradient id="radial-gradient-7" cx="284.68" cy="422.69" r="72.01" gradientTransform="translate(391.52 -78.81) rotate(45)" xlink:href="#radial-gradient"/><radialGradient id="radial-gradient-8" cx="471.68" cy="422.69" r="72.01" gradientTransform="translate(446.29 -211.04) rotate(45)" xlink:href="#radial-gradient"/><radialGradient id="radial-gradient-9" cx="95.68" cy="621.69" r="72.01" gradientTransform="translate(476.88 113.11) rotate(45)" xlink:href="#radial-gradient"/><radialGradient id="radial-gradient-10" cx="470.59" cy="223.69" r="72.01" gradientTransform="translate(305.26 -268.55) rotate(45)" xlink:href="#radial-gradient"/><radialGradient id="radial-gradient-11" cx="96.68" cy="821.69" r="72.01" gradientTransform="translate(618.59 170.99) rotate(45)" xlink:href="#radial-gradient"/><radialGradient id="radial-gradient-12" cx="283.68" cy="821.69" r="72.01" gradientTransform="translate(673.36 38.76) rotate(45)" xlink:href="#radial-gradient"/><radialGradient id="radial-gradient-13" cx="470.68" cy="821.69" r="72.01" gradientTransform="translate(728.13 -93.47) rotate(45)" xlink:href="#radial-gradient"/><radialGradient id="radial-gradient-14" cx="286.59" cy="621.69" r="72.01" gradientTransform="translate(532.79 -21.87) rotate(45)" xlink:href="#radial-gradient"/><radialGradient id="radial-gradient-15" cx="474.68" cy="621.89" r="72.01" gradientTransform="translate(588.03 -154.82) rotate(45)" xlink:href="#radial-gradient"/><radialGradient id="radial-gradient-16" cx="95.59" cy="1020.49" r="72.01" gradientTransform="translate(758.84 229.99) rotate(45)" xlink:href="#radial-gradient"/><radialGradient id="radial-gradient-17" cx="283.68" cy="1020.69" r="72.01" gradientTransform="translate(814.08 97.04) rotate(45)" xlink:href="#radial-gradient"/><radialGradient id="radial-gradient-18" cx="471.68" cy="1020.69" r="72.01" gradientTransform="translate(869.14 -35.89) rotate(45)" xlink:href="#radial-gradient"/><radialGradient id="radial-gradient-19" cx="94.68" cy="1220.69" r="72.01" gradientTransform="translate(900.14 289.27) rotate(45)" xlink:href="#radial-gradient"/><radialGradient id="radial-gradient-20" cx="281.68" cy="1220.69" r="72.01" gradientTransform="translate(954.91 157.04) rotate(45)" xlink:href="#radial-gradient"/><radialGradient id="radial-gradient-21" cx="466.59" cy="1220.69" r="72.01" gradientTransform="translate(1009.07 26.29) rotate(45)" xlink:href="#radial-gradient"/></defs><title>Asset 8</title><g id="Layer_2" data-name="Layer 2"><g id="Layer_1-2" data-name="Layer 1"><circle class="cls-1" cx="103.8" cy="35" r="35" transform="translate(5.65 83.65) rotate(-45)"/><circle class="cls-2" cx="291.9" cy="35.2" r="35" transform="translate(60.6 216.71) rotate(-45)"/><path class="cls-3" d="M248.3,35.7h-4v-1h4Zm-8,0h-4v-1h4Zm-8,0h-4v-1h4Zm-8,0h-4v-1h4Zm-8,0h-4v-1h4Zm-8,0h-4v-1h4Zm-8,0h-4v-1h4Zm-8,0h-4v-1h4Zm-8,0h-4v-1h4Zm-8,0h-4v-1h4Zm-8,0h-4v-1h4Zm-8,0h-4v-1h4Zm-8,0h-4v-1h4Zm-8,0h-4v-1h4Z"/><path class="cls-3" d="M247.84,35.2l-1.54-2.52.09-.06,4.11,1.64,4.3.94-4.3.95-4.11,1.63-.09,0Z"/><path class="cls-3" d="M60.5,235h-4v-1h4Zm-8,0h-4v-1h4Zm-8,0h-4v-1h4Zm-8,0a38.79,38.79,0,0,1-4-.24l.11-1a36.87,36.87,0,0,0,3.94.23Zm-8-.91a37,37,0,0,1-3.9-1.12l.33-1a33.43,33.43,0,0,0,3.79,1.09Zm-7.65-2.67a36.1,36.1,0,0,1-3.55-1.95l.53-.84a35,35,0,0,0,3.45,1.89ZM14,227.13a35.09,35.09,0,0,1-3-2.68l.7-.71a36.58,36.58,0,0,0,3,2.61Zm-5.76-5.68a34.18,34.18,0,0,1-2.38-3.28l.84-.54A34,34,0,0,0,9,220.82Zm-4.39-6.8a36,36,0,0,1-1.59-3.73l.93-.34A36.21,36.21,0,0,0,4.7,214.2ZM1,207a35.71,35.71,0,0,1-.73-4l1-.13A33.94,33.94,0,0,0,2,206.81Zm-1-8v-.63c0-1.13.05-2.28.16-3.41l1,.09c-.1,1.1-.15,2.22-.15,3.32V199Zm1.73-7.85-1-.2a35.35,35.35,0,0,1,1-3.92l1,.31A36.24,36.24,0,0,0,1.73,191.16Zm2.44-7.48-.91-.42a38.22,38.22,0,0,1,1.87-3.59l.86.52A34,34,0,0,0,4.17,183.68Zm4-6.76-.79-.61A36.57,36.57,0,0,1,10,173.22l.72.69A36.83,36.83,0,0,0,8.19,176.92Zm5.42-5.72-.65-.76A36.55,36.55,0,0,1,16.19,168l.56.83A33.19,33.19,0,0,0,13.61,171.2Zm6.53-4.4-.47-.88a37,37,0,0,1,3.69-1.68l.37.93A37.52,37.52,0,0,0,20.14,166.8ZM27.48,164l-.26-1a35.37,35.37,0,0,1,4-.82l.15,1A33.45,33.45,0,0,0,27.48,164Zm545.5-.63h-1.74v-1H573c.75,0,1.5,0,2.24,0l0,1C574.5,163.32,573.75,163.33,573,163.33Zm-5.74,0h-4v-1h4Zm-8,0h-4v-1h4Zm-8,0h-4v-1h4Zm-8,0h-4v-1h4Zm-8,0h-4v-1h4Zm-8,0h-4v-1h4Zm-8,0h-4v-1h4Zm-8,0h-4v-1h4Zm-8,0h-4v-1h4Zm-8,0h-4v-1h4Zm-8,0h-4v-1h4Zm-8,0h-4v-1h4Zm-8,0h-4v-1h4Zm-8,0h-4v-1h4Zm-8,0h-4v-1h4Zm-8,0h-4v-1h4Zm-8,0h-4v-1h4Zm-8,0h-4v-1h4Zm-8,0h-4v-1h4Zm-8,0h-4v-1h4Zm-8,0h-4v-1h4Zm-8,0h-4v-1h4Zm-8,0h-4v-1h4Zm-8,0h-4v-1h4Zm-8,0h-4v-1h4Zm-8,0h-4v-1h4Zm-8,0h-4v-1h4Zm-8,0h-4v-1h4Zm-8,0h-4v-1h4Zm-8,0h-4v-1h4Zm-8,0h-4v-1h4Zm-8,0h-4v-1h4Zm-8,0h-4v-1h4Zm-8,0h-4v-1h4Zm-8,0h-4v-1h4Zm-8,0h-4v-1h4Zm292,0-.1-1c1.32-.12,2.64-.3,3.94-.5l.15,1C582,162.73,580.61,162.9,579.28,163Zm-300,0h-4v-1h4Zm-8,0h-4v-1h4Zm-8,0h-4v-1h4Zm-8,0h-4v-1h4Zm-8,0h-4v-1h4Zm-8,0h-4v-1h4Zm-8,0h-4v-1h4Zm-8,0h-4v-1h4Zm-8,0h-4v-1h4Zm-8,0h-4v-1h4Zm-8,0h-4v-1h4Zm-8,0h-4v-1h4Zm-8,0h-4v-1h4Zm-8,0h-4v-1h4Zm-8,0h-4v-1h4Zm-8,0h-4v-1h4Zm-8,0h-4v-1h4Zm-8,0h-4v-1h4Zm-8,0h-4v-1h4Zm-8,0h-4v-1h4Zm-8,0h-4v-1h4Zm-8,0h-4v-1h4Zm-8,0h-4v-1h4Zm-8,0h-4v-1h4Zm-8,0h-4v-1h4Zm-8,0h-4v-1h4Zm-8,0h-4v-1h4Zm-8,0h-4v-1h4Zm-28,0,0-1c.46,0,.92,0,1.39,0h2.63v1H36.61Q35.93,162.77,35.26,162.8Zm20,0h-4v-1h4Zm-8,0h-4v-1h4Zm540-1-.22-1c1.29-.29,2.58-.62,3.84-1l.28,1C589.85,161.11,588.54,161.45,587.23,161.75Zm7.73-2.27-.34-.94c1.23-.45,2.47-.94,3.67-1.47l.4.92C597.47,158.52,596.22,159,595,159.48Zm7.37-3.22-.46-.89c1.17-.6,2.34-1.25,3.47-1.92l.51.86C604.7,155,603.52,155.65,602.33,156.26Zm6.91-4.12-.56-.82c1.09-.75,2.17-1.53,3.2-2.34l.62.79C611.44,150.59,610.35,151.39,609.24,152.14Zm6.36-4.95-.67-.75c1-.87,2-1.79,2.89-2.72l.71.71C617.59,145.37,616.6,146.3,615.6,147.19Zm5.68-5.7-.75-.66c.87-1,1.72-2,2.53-3.06l.79.61C623,139.44,622.17,140.48,621.28,141.49Zm4.94-6.37-.83-.56c.74-1.09,1.46-2.22,2.13-3.36l.86.51C627.7,132.87,627,134,626.22,135.12Zm4.1-6.94-.89-.46c.6-1.17,1.17-2.38,1.69-3.59l.92.4C631.51,125.76,630.93,127,630.32,128.18Zm3.2-7.4-.94-.34c.45-1.24.86-2.51,1.23-3.78l1,.28C634.39,118.23,634,119.52,633.52,120.78Zm2.25-7.74-1-.22c.29-1.29.53-2.6.74-3.9l1,.16C636.31,110.4,636.06,111.73,635.77,113Zm1.25-8-1-.09c.12-1.31.21-2.64.25-4l1,0C637.22,102.4,637.14,103.76,637,105.08Zm-.75-8c0-1.32-.12-2.65-.24-4l1-.09c.13,1.33.21,2.68.25,4Zm-.73-7.89c-.21-1.31-.45-2.62-.74-3.9l1-.22c.29,1.3.54,2.63.75,4Zm-1.72-7.75c-.36-1.26-.77-2.53-1.22-3.77l.94-.34c.46,1.26.87,2.55,1.24,3.84ZM631.15,74c-.52-1.21-1.09-2.42-1.68-3.59l.89-.45c.6,1.19,1.18,2.41,1.71,3.64Zm-3.59-7.07c-.66-1.13-1.38-2.25-2.12-3.35l.83-.56c.75,1.11,1.48,2.26,2.15,3.41Zm-4.44-6.56c-.81-1-1.65-2.07-2.52-3.06l.75-.66c.88,1,1.74,2.05,2.56,3.11Zm-5.23-6c-.93-.93-1.9-1.85-2.88-2.72l.66-.75c1,.89,2,1.82,2.93,2.77ZM612,49.11c-1-.81-2.12-1.6-3.2-2.34l.56-.83c1.1.76,2.2,1.56,3.25,2.39Zm-6.55-4.48c-1.12-.68-2.29-1.33-3.47-1.93l.46-.89c1.2.61,2.38,1.27,3.53,2Zm-7-3.64c-1.21-.53-2.45-1-3.69-1.48l.34-.94c1.26.46,2.52,1,3.75,1.51Zm-7.46-2.72c-1.25-.37-2.54-.7-3.84-1l.23-1c1.31.3,2.63.64,3.9,1Zm-7.73-1.75c-1.29-.21-2.62-.38-3.93-.51l.09-1c1.34.13,2.68.31,4,.52Zm-7.89-.78c-.76,0-1.53,0-2.3,0H571.3v-1H573c.78,0,1.56,0,2.34,0Zm-8,0h-4v-1h4Zm-8,0h-4v-1h4Zm-8,0h-4v-1h4Zm-8,0h-4v-1h4Zm-8,0h-4v-1h4Zm-8,0h-4v-1h4Zm-8,0h-4v-1h4Z"/><path class="cls-3" d="M60.34,234.49,58.8,232l.09-.05L63,233.54l4.3,1-4.3.94-4.11,1.64-.09,0Z"/><path class="cls-3" d="M60.5,434h-4v-1h4Zm-8,0h-4v-1h4Zm-8,0h-4v-1h4Zm-8,0a38.79,38.79,0,0,1-4-.24l.11-1a36.87,36.87,0,0,0,3.94.23Zm-8-.91a37,37,0,0,1-3.9-1.12l.33-.95a33.43,33.43,0,0,0,3.79,1.09Zm-7.65-2.67a36.1,36.1,0,0,1-3.55-2l.53-.84a35,35,0,0,0,3.45,1.89ZM14,426.13a35.09,35.09,0,0,1-3-2.68l.7-.71a36.58,36.58,0,0,0,3,2.61Zm-5.76-5.68a34.18,34.18,0,0,1-2.38-3.28l.84-.54A34,34,0,0,0,9,419.82Zm-4.39-6.8a36,36,0,0,1-1.59-3.73l.93-.34A36.21,36.21,0,0,0,4.7,413.2ZM1,406a35.71,35.71,0,0,1-.73-4l1-.13A33.94,33.94,0,0,0,2,405.81Zm-1-8v-.63c0-1.13.05-2.28.16-3.41l1,.09c-.1,1.1-.15,2.22-.15,3.32V398Zm1.73-7.85-1-.2a35.35,35.35,0,0,1,1-3.92l1,.31A36.24,36.24,0,0,0,1.73,390.16Zm2.44-7.48-.91-.42a38.22,38.22,0,0,1,1.87-3.59l.86.52A34,34,0,0,0,4.17,382.68Zm4-6.76-.79-.61A36.57,36.57,0,0,1,10,372.22l.72.69A36.83,36.83,0,0,0,8.19,375.92Zm5.42-5.72-.65-.76A36.55,36.55,0,0,1,16.19,367l.56.83A33.19,33.19,0,0,0,13.61,370.2Zm6.53-4.4-.47-.88a37,37,0,0,1,3.69-1.68l.37.93A37.52,37.52,0,0,0,20.14,365.8ZM27.48,363l-.26-1a35.37,35.37,0,0,1,4-.82l.15,1A33.45,33.45,0,0,0,27.48,363Zm545.5-.63h-1.74v-1H573c.75,0,1.5,0,2.24,0l0,1C574.5,362.32,573.75,362.33,573,362.33Zm-5.74,0h-4v-1h4Zm-8,0h-4v-1h4Zm-8,0h-4v-1h4Zm-8,0h-4v-1h4Zm-8,0h-4v-1h4Zm-8,0h-4v-1h4Zm-8,0h-4v-1h4Zm-8,0h-4v-1h4Zm-8,0h-4v-1h4Zm-8,0h-4v-1h4Zm-8,0h-4v-1h4Zm-8,0h-4v-1h4Zm-8,0h-4v-1h4Zm-8,0h-4v-1h4Zm-8,0h-4v-1h4Zm-8,0h-4v-1h4Zm-8,0h-4v-1h4Zm-8,0h-4v-1h4Zm-8,0h-4v-1h4Zm-8,0h-4v-1h4Zm-8,0h-4v-1h4Zm-8,0h-4v-1h4Zm-8,0h-4v-1h4Zm-8,0h-4v-1h4Zm-8,0h-4v-1h4Zm-8,0h-4v-1h4Zm-8,0h-4v-1h4Zm-8,0h-4v-1h4Zm-8,0h-4v-1h4Zm-8,0h-4v-1h4Zm-8,0h-4v-1h4Zm-8,0h-4v-1h4Zm-8,0h-4v-1h4Zm-8,0h-4v-1h4Zm-8,0h-4v-1h4Zm-8,0h-4v-1h4Zm292,0-.1-1c1.32-.12,2.64-.3,3.94-.5l.15,1C582,361.73,580.61,361.9,579.28,362Zm-300,0h-4v-1h4Zm-8,0h-4v-1h4Zm-8,0h-4v-1h4Zm-8,0h-4v-1h4Zm-8,0h-4v-1h4Zm-8,0h-4v-1h4Zm-8,0h-4v-1h4Zm-8,0h-4v-1h4Zm-8,0h-4v-1h4Zm-8,0h-4v-1h4Zm-8,0h-4v-1h4Zm-8,0h-4v-1h4Zm-8,0h-4v-1h4Zm-8,0h-4v-1h4Zm-8,0h-4v-1h4Zm-8,0h-4v-1h4Zm-8,0h-4v-1h4Zm-8,0h-4v-1h4Zm-8,0h-4v-1h4Zm-8,0h-4v-1h4Zm-8,0h-4v-1h4Zm-8,0h-4v-1h4Zm-8,0h-4v-1h4Zm-8,0h-4v-1h4Zm-8,0h-4v-1h4Zm-8,0h-4v-1h4Zm-8,0h-4v-1h4Zm-8,0h-4v-1h4Zm-28,0,0-1c.46,0,.92,0,1.39,0h2.63v1H36.61Q35.93,361.77,35.26,361.8Zm20,0h-4v-1h4Zm-8,0h-4v-1h4Zm540-1-.22-1c1.29-.29,2.58-.62,3.84-1l.28,1C589.85,360.11,588.54,360.45,587.23,360.75Zm7.73-2.27-.34-.94c1.23-.45,2.47-.94,3.67-1.47l.4.92C597.47,357.52,596.22,358,595,358.48Zm7.37-3.22-.46-.89c1.17-.6,2.34-1.25,3.47-1.92l.51.86C604.7,354,603.52,354.65,602.33,355.26Zm6.91-4.12-.56-.82c1.09-.75,2.17-1.53,3.2-2.34l.62.79C611.44,349.59,610.35,350.39,609.24,351.14Zm6.36-4.95-.67-.75c1-.87,2-1.79,2.89-2.72l.71.71C617.59,344.37,616.6,345.3,615.6,346.19Zm5.68-5.7-.75-.66c.87-1,1.72-2,2.53-3.06l.79.61C623,338.44,622.17,339.48,621.28,340.49Zm4.94-6.37-.83-.56c.74-1.09,1.46-2.22,2.13-3.36l.86.51C627.7,331.87,627,333,626.22,334.12Zm4.1-6.94-.89-.46c.6-1.17,1.17-2.38,1.69-3.59l.92.4C631.51,324.76,630.93,326,630.32,327.18Zm3.2-7.4-.94-.34c.45-1.24.86-2.51,1.23-3.78l1,.28C634.39,317.23,634,318.52,633.52,319.78Zm2.25-7.74-1-.22c.29-1.29.53-2.6.74-3.9l1,.16C636.31,309.4,636.06,310.73,635.77,312Zm1.25-8-1-.09c.12-1.31.21-2.64.25-4l1,0C637.22,301.4,637.14,302.76,637,304.08Zm-.75-8c0-1.32-.12-2.65-.24-4l1-.09c.13,1.33.21,2.68.25,4Zm-.73-7.89c-.21-1.31-.45-2.62-.74-3.9l1-.22c.29,1.3.54,2.63.75,4Zm-1.72-7.75c-.36-1.26-.77-2.53-1.22-3.77l.94-.34c.46,1.26.87,2.55,1.24,3.84ZM631.15,273c-.52-1.21-1.09-2.42-1.68-3.59l.89-.45c.6,1.19,1.18,2.41,1.71,3.64Zm-3.59-7.07c-.66-1.13-1.38-2.25-2.12-3.35l.83-.56c.75,1.11,1.48,2.26,2.15,3.41Zm-4.44-6.56c-.81-1-1.65-2.07-2.52-3.06l.75-.66c.88,1,1.74,2.05,2.56,3.11Zm-5.23-6c-.93-.93-1.9-1.85-2.88-2.72l.66-.75c1,.89,2,1.82,2.93,2.77ZM612,248.11c-1-.81-2.12-1.6-3.2-2.34l.56-.83c1.1.76,2.2,1.56,3.25,2.39Zm-6.55-4.48c-1.12-.68-2.29-1.33-3.47-1.93l.46-.89c1.2.61,2.38,1.27,3.53,2Zm-7-3.64c-1.21-.53-2.45-1-3.69-1.48l.34-.94c1.26.46,2.52,1,3.75,1.51Zm-7.46-2.72c-1.25-.37-2.54-.7-3.84-1l.23-1c1.31.3,2.63.64,3.9,1Zm-7.73-1.75c-1.29-.21-2.62-.38-3.93-.51l.09-1c1.34.13,2.68.31,4,.52Zm-7.89-.78c-.76,0-1.53,0-2.3,0H571.3v-1H573c.78,0,1.56,0,2.34,0Zm-8,0h-4v-1h4Zm-8,0h-4v-1h4Zm-8,0h-4v-1h4Zm-8,0h-4v-1h4Zm-8,0h-4v-1h4Zm-8,0h-4v-1h4Zm-8,0h-4v-1h4Z"/><path class="cls-3" d="M60.34,433.49,58.8,431l.09,0L63,432.54l4.3.95-4.3.94-4.11,1.64L58.8,436Z"/><path class="cls-3" d="M60.5,633h-4v-1h4Zm-8,0h-4v-1h4Zm-8,0h-4v-1h4Zm-8,0a38.79,38.79,0,0,1-4-.24l.11-1a36.87,36.87,0,0,0,3.94.23Zm-8-.91a37,37,0,0,1-3.9-1.12l.33-1a33.43,33.43,0,0,0,3.79,1.09Zm-7.65-2.67a36.1,36.1,0,0,1-3.55-1.95l.53-.84a35,35,0,0,0,3.45,1.89ZM14,625.13a35.09,35.09,0,0,1-3-2.68l.7-.71a36.58,36.58,0,0,0,3,2.61Zm-5.76-5.68a34.18,34.18,0,0,1-2.38-3.28l.84-.54A34,34,0,0,0,9,618.82Zm-4.39-6.8a36,36,0,0,1-1.59-3.73l.93-.34A36.21,36.21,0,0,0,4.7,612.2ZM1,605a35.71,35.71,0,0,1-.73-4l1-.13A33.94,33.94,0,0,0,2,604.81Zm-1-8v-.63c0-1.13.05-2.28.16-3.41l1,.09c-.1,1.1-.15,2.22-.15,3.32V597Zm1.73-7.85-1-.2a35.35,35.35,0,0,1,1-3.92l1,.31A36.24,36.24,0,0,0,1.73,589.16Zm2.44-7.48-.91-.42a38.22,38.22,0,0,1,1.87-3.59l.86.52A34,34,0,0,0,4.17,581.68Zm4-6.76-.79-.61A36.57,36.57,0,0,1,10,571.22l.72.69A36.83,36.83,0,0,0,8.19,574.92Zm5.42-5.72-.65-.76A36.55,36.55,0,0,1,16.19,566l.56.83A33.19,33.19,0,0,0,13.61,569.2Zm6.53-4.4-.47-.88a37,37,0,0,1,3.69-1.68l.37.93A37.52,37.52,0,0,0,20.14,564.8ZM27.48,562l-.26-1a35.37,35.37,0,0,1,4-.82l.15,1A33.45,33.45,0,0,0,27.48,562Zm545.5-.63h-1.74v-1H573c.75,0,1.5,0,2.24,0l0,1C574.5,561.32,573.75,561.33,573,561.33Zm-5.74,0h-4v-1h4Zm-8,0h-4v-1h4Zm-8,0h-4v-1h4Zm-8,0h-4v-1h4Zm-8,0h-4v-1h4Zm-8,0h-4v-1h4Zm-8,0h-4v-1h4Zm-8,0h-4v-1h4Zm-8,0h-4v-1h4Zm-8,0h-4v-1h4Zm-8,0h-4v-1h4Zm-8,0h-4v-1h4Zm-8,0h-4v-1h4Zm-8,0h-4v-1h4Zm-8,0h-4v-1h4Zm-8,0h-4v-1h4Zm-8,0h-4v-1h4Zm-8,0h-4v-1h4Zm-8,0h-4v-1h4Zm-8,0h-4v-1h4Zm-8,0h-4v-1h4Zm-8,0h-4v-1h4Zm-8,0h-4v-1h4Zm-8,0h-4v-1h4Zm-8,0h-4v-1h4Zm-8,0h-4v-1h4Zm-8,0h-4v-1h4Zm-8,0h-4v-1h4Zm-8,0h-4v-1h4Zm-8,0h-4v-1h4Zm-8,0h-4v-1h4Zm-8,0h-4v-1h4Zm-8,0h-4v-1h4Zm-8,0h-4v-1h4Zm-8,0h-4v-1h4Zm-8,0h-4v-1h4Zm292,0-.1-1c1.32-.12,2.64-.3,3.94-.5l.15,1C582,560.73,580.61,560.9,579.28,561Zm-300,0h-4v-1h4Zm-8,0h-4v-1h4Zm-8,0h-4v-1h4Zm-8,0h-4v-1h4Zm-8,0h-4v-1h4Zm-8,0h-4v-1h4Zm-8,0h-4v-1h4Zm-8,0h-4v-1h4Zm-8,0h-4v-1h4Zm-8,0h-4v-1h4Zm-8,0h-4v-1h4Zm-8,0h-4v-1h4Zm-8,0h-4v-1h4Zm-8,0h-4v-1h4Zm-8,0h-4v-1h4Zm-8,0h-4v-1h4Zm-8,0h-4v-1h4Zm-8,0h-4v-1h4Zm-8,0h-4v-1h4Zm-8,0h-4v-1h4Zm-8,0h-4v-1h4Zm-8,0h-4v-1h4Zm-8,0h-4v-1h4Zm-8,0h-4v-1h4Zm-8,0h-4v-1h4Zm-8,0h-4v-1h4Zm-8,0h-4v-1h4Zm-8,0h-4v-1h4Zm-28,0,0-1c.46,0,.92,0,1.39,0h2.63v1H36.61Zm20,0h-4v-1h4Zm-8,0h-4v-1h4Zm540-1-.22-1c1.29-.29,2.58-.62,3.84-1l.28,1C589.85,559.11,588.54,559.45,587.23,559.75Zm7.73-2.27-.34-.94c1.23-.45,2.47-.94,3.67-1.47l.4.92C597.47,556.52,596.22,557,595,557.48Zm7.37-3.22-.46-.89c1.17-.6,2.34-1.25,3.47-1.92l.51.86C604.7,553,603.52,553.65,602.33,554.26Zm6.91-4.12-.56-.82c1.09-.75,2.17-1.53,3.2-2.34l.62.79C611.44,548.59,610.35,549.39,609.24,550.14Zm6.36-4.95-.67-.75c1-.87,2-1.79,2.89-2.72l.71.71C617.59,543.37,616.6,544.3,615.6,545.19Zm5.68-5.7-.75-.66c.87-1,1.72-2,2.53-3.06l.79.61C623,537.44,622.17,538.48,621.28,539.49Zm4.94-6.37-.83-.56c.74-1.09,1.46-2.22,2.13-3.36l.86.51C627.7,530.87,627,532,626.22,533.12Zm4.1-6.94-.89-.46c.6-1.17,1.17-2.38,1.69-3.59l.92.4C631.51,523.76,630.93,525,630.32,526.18Zm3.2-7.4-.94-.34c.45-1.24.86-2.51,1.23-3.78l1,.28C634.39,516.23,634,517.52,633.52,518.78Zm2.25-7.74-1-.22c.29-1.29.53-2.6.74-3.9l1,.16C636.31,508.4,636.06,509.73,635.77,511Zm1.25-8-1-.09c.12-1.31.21-2.64.25-4l1,0C637.22,500.4,637.14,501.76,637,503.08Zm-.75-8c0-1.32-.12-2.65-.24-4l1-.09c.13,1.33.21,2.68.25,4Zm-.73-7.89c-.21-1.31-.45-2.62-.74-3.9l1-.22c.29,1.3.54,2.63.75,4Zm-1.72-7.75c-.36-1.26-.77-2.53-1.22-3.77l.94-.34c.46,1.26.87,2.55,1.24,3.84ZM631.15,472c-.52-1.21-1.09-2.42-1.68-3.59l.89-.45c.6,1.19,1.18,2.41,1.71,3.64Zm-3.59-7.07c-.66-1.13-1.38-2.25-2.12-3.35l.83-.56c.75,1.11,1.48,2.26,2.15,3.41Zm-4.44-6.56c-.81-1-1.65-2.07-2.52-3.06l.75-.66c.88,1,1.74,2.05,2.56,3.11Zm-5.23-6c-.93-.93-1.9-1.85-2.88-2.72l.66-.75c1,.89,2,1.82,2.93,2.77ZM612,447.11c-1-.81-2.12-1.6-3.2-2.34l.56-.83c1.1.76,2.2,1.56,3.25,2.39Zm-6.55-4.48c-1.12-.68-2.29-1.33-3.47-1.93l.46-.89c1.2.61,2.38,1.27,3.53,2Zm-7-3.64c-1.21-.53-2.45-1-3.69-1.48l.34-.94c1.26.46,2.52,1,3.75,1.51Zm-7.46-2.72c-1.25-.37-2.54-.7-3.84-1l.23-1c1.31.3,2.63.64,3.9,1Zm-7.73-1.75c-1.29-.21-2.62-.38-3.93-.51l.09-1c1.34.13,2.68.31,4,.52Zm-7.89-.78c-.76,0-1.53,0-2.3,0H571.3v-1H573c.78,0,1.56,0,2.34,0Zm-8,0h-4v-1h4Zm-8,0h-4v-1h4Zm-8,0h-4v-1h4Zm-8,0h-4v-1h4Zm-8,0h-4v-1h4Zm-8,0h-4v-1h4Zm-8,0h-4v-1h4Z"/><path class="cls-3" d="M60.34,632.49,58.8,630l.09-.05L63,631.54l4.3,1-4.3.94-4.11,1.64L58.8,635Z"/><path class="cls-3" d="M60.5,833h-4v-1h4Zm-8,0h-4v-1h4Zm-8,0h-4v-1h4Zm-8,0a38.79,38.79,0,0,1-4-.24l.11-1a36.87,36.87,0,0,0,3.94.23Zm-8-.91a37,37,0,0,1-3.9-1.12l.33-1a33.43,33.43,0,0,0,3.79,1.09Zm-7.65-2.67a36.1,36.1,0,0,1-3.55-1.95l.53-.84a35,35,0,0,0,3.45,1.89ZM14,825.13a35.09,35.09,0,0,1-3-2.68l.7-.71a36.58,36.58,0,0,0,3,2.61Zm-5.76-5.68a34.18,34.18,0,0,1-2.38-3.28l.84-.54A34,34,0,0,0,9,818.82Zm-4.39-6.8a36,36,0,0,1-1.59-3.73l.93-.34A36.21,36.21,0,0,0,4.7,812.2ZM1,805a35.71,35.71,0,0,1-.73-4l1-.13A33.94,33.94,0,0,0,2,804.81Zm-1-8v-.63c0-1.13.05-2.28.16-3.41l1,.09c-.1,1.1-.15,2.22-.15,3.32V797Zm1.73-7.85-1-.2a35.35,35.35,0,0,1,1-3.92l1,.31A36.24,36.24,0,0,0,1.73,789.16Zm2.44-7.48-.91-.42a38.22,38.22,0,0,1,1.87-3.59l.86.52A34,34,0,0,0,4.17,781.68Zm4-6.76-.79-.61A36.57,36.57,0,0,1,10,771.22l.72.69A36.83,36.83,0,0,0,8.19,774.92Zm5.42-5.72-.65-.76A36.55,36.55,0,0,1,16.19,766l.56.83A33.19,33.19,0,0,0,13.61,769.2Zm6.53-4.4-.47-.88a37,37,0,0,1,3.69-1.68l.37.93A37.52,37.52,0,0,0,20.14,764.8ZM27.48,762l-.26-1a35.37,35.37,0,0,1,4-.82l.15,1A33.45,33.45,0,0,0,27.48,762Zm545.5-.63h-1.74v-1H573c.75,0,1.5,0,2.24,0l0,1C574.5,761.32,573.75,761.33,573,761.33Zm-5.74,0h-4v-1h4Zm-8,0h-4v-1h4Zm-8,0h-4v-1h4Zm-8,0h-4v-1h4Zm-8,0h-4v-1h4Zm-8,0h-4v-1h4Zm-8,0h-4v-1h4Zm-8,0h-4v-1h4Zm-8,0h-4v-1h4Zm-8,0h-4v-1h4Zm-8,0h-4v-1h4Zm-8,0h-4v-1h4Zm-8,0h-4v-1h4Zm-8,0h-4v-1h4Zm-8,0h-4v-1h4Zm-8,0h-4v-1h4Zm-8,0h-4v-1h4Zm-8,0h-4v-1h4Zm-8,0h-4v-1h4Zm-8,0h-4v-1h4Zm-8,0h-4v-1h4Zm-8,0h-4v-1h4Zm-8,0h-4v-1h4Zm-8,0h-4v-1h4Zm-8,0h-4v-1h4Zm-8,0h-4v-1h4Zm-8,0h-4v-1h4Zm-8,0h-4v-1h4Zm-8,0h-4v-1h4Zm-8,0h-4v-1h4Zm-8,0h-4v-1h4Zm-8,0h-4v-1h4Zm-8,0h-4v-1h4Zm-8,0h-4v-1h4Zm-8,0h-4v-1h4Zm-8,0h-4v-1h4Zm292,0-.1-1c1.32-.12,2.64-.3,3.94-.5l.15,1C582,760.73,580.61,760.9,579.28,761Zm-300,0h-4v-1h4Zm-8,0h-4v-1h4Zm-8,0h-4v-1h4Zm-8,0h-4v-1h4Zm-8,0h-4v-1h4Zm-8,0h-4v-1h4Zm-8,0h-4v-1h4Zm-8,0h-4v-1h4Zm-8,0h-4v-1h4Zm-8,0h-4v-1h4Zm-8,0h-4v-1h4Zm-8,0h-4v-1h4Zm-8,0h-4v-1h4Zm-8,0h-4v-1h4Zm-8,0h-4v-1h4Zm-8,0h-4v-1h4Zm-8,0h-4v-1h4Zm-8,0h-4v-1h4Zm-8,0h-4v-1h4Zm-8,0h-4v-1h4Zm-8,0h-4v-1h4Zm-8,0h-4v-1h4Zm-8,0h-4v-1h4Zm-8,0h-4v-1h4Zm-8,0h-4v-1h4Zm-8,0h-4v-1h4Zm-8,0h-4v-1h4Zm-8,0h-4v-1h4Zm-28,0,0-1c.46,0,.92,0,1.39,0h2.63v1H36.61Zm20,0h-4v-1h4Zm-8,0h-4v-1h4Zm540-1-.22-1c1.29-.29,2.58-.62,3.84-1l.28,1C589.85,759.11,588.54,759.45,587.23,759.75Zm7.73-2.27-.34-.94c1.23-.45,2.47-.94,3.67-1.47l.4.92C597.47,756.52,596.22,757,595,757.48Zm7.37-3.22-.46-.89c1.17-.6,2.34-1.25,3.47-1.92l.51.86C604.7,753,603.52,753.65,602.33,754.26Zm6.91-4.12-.56-.82c1.09-.75,2.17-1.53,3.2-2.34l.62.79C611.44,748.59,610.35,749.39,609.24,750.14Zm6.36-4.95-.67-.75c1-.87,2-1.79,2.89-2.72l.71.71C617.59,743.37,616.6,744.3,615.6,745.19Zm5.68-5.7-.75-.66c.87-1,1.72-2,2.53-3.06l.79.61C623,737.44,622.17,738.48,621.28,739.49Zm4.94-6.37-.83-.56c.74-1.09,1.46-2.22,2.13-3.36l.86.51C627.7,730.87,627,732,626.22,733.12Zm4.1-6.94-.89-.46c.6-1.17,1.17-2.38,1.69-3.59l.92.4C631.51,723.76,630.93,725,630.32,726.18Zm3.2-7.4-.94-.34c.45-1.24.86-2.51,1.23-3.78l1,.28C634.39,716.23,634,717.52,633.52,718.78Zm2.25-7.74-1-.22c.29-1.29.53-2.6.74-3.9l1,.16C636.31,708.4,636.06,709.73,635.77,711Zm1.25-8-1-.09c.12-1.31.21-2.64.25-4l1,0C637.22,700.4,637.14,701.76,637,703.08Zm-.75-8c0-1.32-.12-2.65-.24-4l1-.09c.13,1.33.21,2.68.25,4Zm-.73-7.89c-.21-1.31-.45-2.62-.74-3.9l1-.22c.29,1.3.54,2.63.75,4Zm-1.72-7.75c-.36-1.26-.77-2.53-1.22-3.77l.94-.34c.46,1.26.87,2.55,1.24,3.84ZM631.15,672c-.52-1.21-1.09-2.42-1.68-3.59l.89-.45c.6,1.19,1.18,2.41,1.71,3.64Zm-3.59-7.07c-.66-1.13-1.38-2.25-2.12-3.35l.83-.56c.75,1.11,1.48,2.26,2.15,3.41Zm-4.44-6.56c-.81-1-1.65-2.07-2.52-3.06l.75-.66c.88,1,1.74,2,2.56,3.11Zm-5.23-6c-.93-.93-1.9-1.85-2.88-2.72l.66-.75c1,.89,2,1.82,2.93,2.77ZM612,647.11c-1-.81-2.12-1.6-3.2-2.34l.56-.83c1.1.76,2.2,1.56,3.25,2.39Zm-6.55-4.48c-1.12-.68-2.29-1.33-3.47-1.93l.46-.89c1.2.61,2.38,1.27,3.53,2Zm-7-3.64c-1.21-.53-2.45-1-3.69-1.48l.34-.94c1.26.46,2.52,1,3.75,1.51Zm-7.46-2.72c-1.25-.37-2.54-.7-3.84-1l.23-1c1.31.3,2.63.64,3.9,1Zm-7.73-1.75c-1.29-.21-2.62-.38-3.93-.51l.09-1c1.34.13,2.68.31,4,.52Zm-7.89-.78c-.76,0-1.53,0-2.3,0H571.3v-1H573c.78,0,1.56,0,2.34,0Zm-8,0h-4v-1h4Zm-8,0h-4v-1h4Zm-8,0h-4v-1h4Zm-8,0h-4v-1h4Zm-8,0h-4v-1h4Zm-8,0h-4v-1h4Zm-8,0h-4v-1h4Z"/><path class="cls-3" d="M60.34,832.49,58.8,830l.09-.05L63,831.54l4.3,1-4.3.94-4.11,1.64L58.8,835Z"/><path class="cls-3" d="M60.5,1032h-4v-1h4Zm-8,0h-4v-1h4Zm-8,0h-4v-1h4Zm-8,0a38.79,38.79,0,0,1-4-.24l.11-1a36.87,36.87,0,0,0,3.94.23Zm-8-.91a37,37,0,0,1-3.9-1.12l.33-1a33.43,33.43,0,0,0,3.79,1.09Zm-7.65-2.67a36.1,36.1,0,0,1-3.55-2l.53-.84a35,35,0,0,0,3.45,1.89ZM14,1024.13a35.09,35.09,0,0,1-3-2.68l.7-.71a36.58,36.58,0,0,0,3,2.61Zm-5.76-5.68a34.18,34.18,0,0,1-2.38-3.28l.84-.54A34,34,0,0,0,9,1017.82Zm-4.39-6.8a36,36,0,0,1-1.59-3.73l.93-.34a36.21,36.21,0,0,0,1.56,3.62ZM1,1004a35.71,35.71,0,0,1-.73-4l1-.13a33.94,33.94,0,0,0,.71,3.88Zm-1-8v-.63c0-1.13.05-2.28.16-3.41l1,.09c-.1,1.1-.15,2.22-.15,3.32V996Zm1.73-7.85-1-.2a35.35,35.35,0,0,1,1-3.92l1,.31A36.24,36.24,0,0,0,1.73,988.16Zm2.44-7.48-.91-.42a38.22,38.22,0,0,1,1.87-3.59l.86.52A34,34,0,0,0,4.17,980.68Zm4-6.76-.79-.61A36.57,36.57,0,0,1,10,970.22l.72.69A36.83,36.83,0,0,0,8.19,973.92Zm5.42-5.72-.65-.76A36.55,36.55,0,0,1,16.19,965l.56.83A33.19,33.19,0,0,0,13.61,968.2Zm6.53-4.4-.47-.88a37,37,0,0,1,3.69-1.68l.37.93A37.52,37.52,0,0,0,20.14,963.8ZM27.48,961l-.26-1a35.37,35.37,0,0,1,4-.82l.15,1A33.45,33.45,0,0,0,27.48,961Zm545.5-.63h-1.74v-1H573c.75,0,1.5,0,2.24,0l0,1C574.5,960.32,573.75,960.33,573,960.33Zm-5.74,0h-4v-1h4Zm-8,0h-4v-1h4Zm-8,0h-4v-1h4Zm-8,0h-4v-1h4Zm-8,0h-4v-1h4Zm-8,0h-4v-1h4Zm-8,0h-4v-1h4Zm-8,0h-4v-1h4Zm-8,0h-4v-1h4Zm-8,0h-4v-1h4Zm-8,0h-4v-1h4Zm-8,0h-4v-1h4Zm-8,0h-4v-1h4Zm-8,0h-4v-1h4Zm-8,0h-4v-1h4Zm-8,0h-4v-1h4Zm-8,0h-4v-1h4Zm-8,0h-4v-1h4Zm-8,0h-4v-1h4Zm-8,0h-4v-1h4Zm-8,0h-4v-1h4Zm-8,0h-4v-1h4Zm-8,0h-4v-1h4Zm-8,0h-4v-1h4Zm-8,0h-4v-1h4Zm-8,0h-4v-1h4Zm-8,0h-4v-1h4Zm-8,0h-4v-1h4Zm-8,0h-4v-1h4Zm-8,0h-4v-1h4Zm-8,0h-4v-1h4Zm-8,0h-4v-1h4Zm-8,0h-4v-1h4Zm-8,0h-4v-1h4Zm-8,0h-4v-1h4Zm-8,0h-4v-1h4Zm292,0-.1-1c1.32-.12,2.64-.3,3.94-.5l.15,1C582,959.73,580.61,959.9,579.28,960Zm-300,0h-4v-1h4Zm-8,0h-4v-1h4Zm-8,0h-4v-1h4Zm-8,0h-4v-1h4Zm-8,0h-4v-1h4Zm-8,0h-4v-1h4Zm-8,0h-4v-1h4Zm-8,0h-4v-1h4Zm-8,0h-4v-1h4Zm-8,0h-4v-1h4Zm-8,0h-4v-1h4Zm-8,0h-4v-1h4Zm-8,0h-4v-1h4Zm-8,0h-4v-1h4Zm-8,0h-4v-1h4Zm-8,0h-4v-1h4Zm-8,0h-4v-1h4Zm-8,0h-4v-1h4Zm-8,0h-4v-1h4Zm-8,0h-4v-1h4Zm-8,0h-4v-1h4Zm-8,0h-4v-1h4Zm-8,0h-4v-1h4Zm-8,0h-4v-1h4Zm-8,0h-4v-1h4Zm-8,0h-4v-1h4Zm-8,0h-4v-1h4Zm-8,0h-4v-1h4Zm-28,0,0-1c.46,0,.92,0,1.39,0h2.63v1H36.61Zm20,0h-4v-1h4Zm-8,0h-4v-1h4Zm540-1-.22-1c1.29-.29,2.58-.62,3.84-1l.28,1C589.85,958.11,588.54,958.45,587.23,958.75Zm7.73-2.27-.34-.94c1.23-.45,2.47-.94,3.67-1.47l.4.92C597.47,955.52,596.22,956,595,956.48Zm7.37-3.22-.46-.89c1.17-.6,2.34-1.25,3.47-1.92l.51.86C604.7,952,603.52,952.65,602.33,953.26Zm6.91-4.12-.56-.82c1.09-.75,2.17-1.53,3.2-2.34l.62.79C611.44,947.59,610.35,948.39,609.24,949.14Zm6.36-4.95-.67-.75c1-.87,2-1.79,2.89-2.72l.71.71C617.59,942.37,616.6,943.3,615.6,944.19Zm5.68-5.7-.75-.66c.87-1,1.72-2,2.53-3.06l.79.61C623,936.44,622.17,937.48,621.28,938.49Zm4.94-6.37-.83-.56c.74-1.09,1.46-2.22,2.13-3.36l.86.51C627.7,929.87,627,931,626.22,932.12Zm4.1-6.94-.89-.46c.6-1.17,1.17-2.38,1.69-3.59l.92.4C631.51,922.76,630.93,924,630.32,925.18Zm3.2-7.4-.94-.34c.45-1.24.86-2.51,1.23-3.78l1,.28C634.39,915.23,634,916.52,633.52,917.78Zm2.25-7.74-1-.22c.29-1.29.53-2.6.74-3.9l1,.16C636.31,907.4,636.06,908.73,635.77,910Zm1.25-8-1-.09c.12-1.31.21-2.64.25-4l1,0C637.22,899.4,637.14,900.76,637,902.08Zm-.75-8c0-1.32-.12-2.65-.24-4l1-.09c.13,1.33.21,2.68.25,4Zm-.73-7.89c-.21-1.31-.45-2.62-.74-3.9l1-.22c.29,1.3.54,2.63.75,4Zm-1.72-7.75c-.36-1.26-.77-2.53-1.22-3.77l.94-.34c.46,1.26.87,2.55,1.24,3.84ZM631.15,871c-.52-1.21-1.09-2.42-1.68-3.59l.89-.45c.6,1.19,1.18,2.41,1.71,3.64Zm-3.59-7.07c-.66-1.13-1.38-2.25-2.12-3.35l.83-.56c.75,1.11,1.48,2.26,2.15,3.41Zm-4.44-6.56c-.81-1-1.65-2.07-2.52-3.06l.75-.66c.88,1,1.74,2,2.56,3.11Zm-5.23-6c-.93-.93-1.9-1.85-2.88-2.72l.66-.75c1,.89,2,1.82,2.93,2.77ZM612,846.11c-1-.81-2.12-1.6-3.2-2.34l.56-.83c1.1.76,2.2,1.56,3.25,2.39Zm-6.55-4.48c-1.12-.68-2.29-1.33-3.47-1.93l.46-.89c1.2.61,2.38,1.27,3.53,2Zm-7-3.64c-1.21-.53-2.45-1-3.69-1.48l.34-.94c1.26.46,2.52,1,3.75,1.51Zm-7.46-2.72c-1.25-.37-2.54-.7-3.84-1l.23-1c1.31.3,2.63.64,3.9,1Zm-7.73-1.75c-1.29-.21-2.62-.38-3.93-.51l.09-1c1.34.13,2.68.31,4,.52Zm-7.89-.78c-.76,0-1.53,0-2.3,0H571.3v-1H573c.78,0,1.56,0,2.34,0Zm-8,0h-4v-1h4Zm-8,0h-4v-1h4Zm-8,0h-4v-1h4Zm-8,0h-4v-1h4Zm-8,0h-4v-1h4Zm-8,0h-4v-1h4Zm-8,0h-4v-1h4Z"/><path class="cls-3" d="M60.34,1031.49,58.8,1029l.09,0,4.11,1.63,4.3,1-4.3.94-4.11,1.64-.09,0Z"/><path class="cls-3" d="M60.5,1232h-4v-1h4Zm-8,0h-4v-1h4Zm-8,0h-4v-1h4Zm-8,0a38.79,38.79,0,0,1-4-.24l.11-1a36.87,36.87,0,0,0,3.94.23Zm-8-.91a37,37,0,0,1-3.9-1.12l.33-1a33.43,33.43,0,0,0,3.79,1.09Zm-7.65-2.67a36.1,36.1,0,0,1-3.55-2l.53-.84a35,35,0,0,0,3.45,1.89ZM14,1224.13a35.09,35.09,0,0,1-3-2.68l.7-.71a36.58,36.58,0,0,0,3,2.61Zm-5.76-5.68a34.18,34.18,0,0,1-2.38-3.28l.84-.54A34,34,0,0,0,9,1217.82Zm-4.39-6.8a36,36,0,0,1-1.59-3.73l.93-.34a36.21,36.21,0,0,0,1.56,3.62ZM1,1204a35.71,35.71,0,0,1-.73-4l1-.13a33.94,33.94,0,0,0,.71,3.88Zm-1-8v-.63c0-1.13.05-2.28.16-3.41l1,.09c-.1,1.1-.15,2.22-.15,3.32v.62Zm1.73-7.85-1-.2a35.35,35.35,0,0,1,1-3.92l1,.31A36.24,36.24,0,0,0,1.73,1188.16Zm2.44-7.48-.91-.42a38.22,38.22,0,0,1,1.87-3.59l.86.52A34,34,0,0,0,4.17,1180.68Zm4-6.76-.79-.61a36.57,36.57,0,0,1,2.62-3.09l.72.69A36.83,36.83,0,0,0,8.19,1173.92Zm5.42-5.72-.65-.76a36.55,36.55,0,0,1,3.23-2.45l.56.83A33.19,33.19,0,0,0,13.61,1168.2Zm6.53-4.4-.47-.88a37,37,0,0,1,3.69-1.68l.37.93A37.52,37.52,0,0,0,20.14,1163.8Zm7.34-2.84-.26-1a35.37,35.37,0,0,1,4-.82l.15,1A33.45,33.45,0,0,0,27.48,1161Zm545.5-.63h-1.74v-1H573c.75,0,1.5,0,2.24,0l0,1C574.5,1160.32,573.75,1160.33,573,1160.33Zm-5.74,0h-4v-1h4Zm-8,0h-4v-1h4Zm-8,0h-4v-1h4Zm-8,0h-4v-1h4Zm-8,0h-4v-1h4Zm-8,0h-4v-1h4Zm-8,0h-4v-1h4Zm-8,0h-4v-1h4Zm-8,0h-4v-1h4Zm-8,0h-4v-1h4Zm-8,0h-4v-1h4Zm-8,0h-4v-1h4Zm-8,0h-4v-1h4Zm-8,0h-4v-1h4Zm-8,0h-4v-1h4Zm-8,0h-4v-1h4Zm-8,0h-4v-1h4Zm-8,0h-4v-1h4Zm-8,0h-4v-1h4Zm-8,0h-4v-1h4Zm-8,0h-4v-1h4Zm-8,0h-4v-1h4Zm-8,0h-4v-1h4Zm-8,0h-4v-1h4Zm-8,0h-4v-1h4Zm-8,0h-4v-1h4Zm-8,0h-4v-1h4Zm-8,0h-4v-1h4Zm-8,0h-4v-1h4Zm-8,0h-4v-1h4Zm-8,0h-4v-1h4Zm-8,0h-4v-1h4Zm-8,0h-4v-1h4Zm-8,0h-4v-1h4Zm-8,0h-4v-1h4Zm-8,0h-4v-1h4Zm292,0-.1-1c1.32-.12,2.64-.3,3.94-.5l.15,1C582,1159.73,580.61,1159.9,579.28,1160Zm-300,0h-4v-1h4Zm-8,0h-4v-1h4Zm-8,0h-4v-1h4Zm-8,0h-4v-1h4Zm-8,0h-4v-1h4Zm-8,0h-4v-1h4Zm-8,0h-4v-1h4Zm-8,0h-4v-1h4Zm-8,0h-4v-1h4Zm-8,0h-4v-1h4Zm-8,0h-4v-1h4Zm-8,0h-4v-1h4Zm-8,0h-4v-1h4Zm-8,0h-4v-1h4Zm-8,0h-4v-1h4Zm-8,0h-4v-1h4Zm-8,0h-4v-1h4Zm-8,0h-4v-1h4Zm-8,0h-4v-1h4Zm-8,0h-4v-1h4Zm-8,0h-4v-1h4Zm-8,0h-4v-1h4Zm-8,0h-4v-1h4Zm-8,0h-4v-1h4Zm-8,0h-4v-1h4Zm-8,0h-4v-1h4Zm-8,0h-4v-1h4Zm-8,0h-4v-1h4Zm-28,0,0-1c.46,0,.92,0,1.39,0h2.63v1H36.61Zm20,0h-4v-1h4Zm-8,0h-4v-1h4Zm540-1-.22-1c1.29-.29,2.58-.62,3.84-1l.28,1C589.85,1158.11,588.54,1158.45,587.23,1158.75Zm7.73-2.27-.34-.94c1.23-.45,2.47-.94,3.67-1.47l.4.92C597.47,1155.52,596.22,1156,595,1156.48Zm7.37-3.22-.46-.89c1.17-.6,2.34-1.25,3.47-1.92l.51.86C604.7,1152,603.52,1152.65,602.33,1153.26Zm6.91-4.12-.56-.82c1.09-.75,2.17-1.53,3.2-2.34l.62.79C611.44,1147.59,610.35,1148.39,609.24,1149.14Zm6.36-5-.67-.75c1-.87,2-1.79,2.89-2.72l.71.71C617.59,1142.37,616.6,1143.3,615.6,1144.19Zm5.68-5.7-.75-.66c.87-1,1.72-2,2.53-3.06l.79.61C623,1136.44,622.17,1137.48,621.28,1138.49Zm4.94-6.37-.83-.56c.74-1.09,1.46-2.22,2.13-3.36l.86.51C627.7,1129.87,627,1131,626.22,1132.12Zm4.1-6.94-.89-.46c.6-1.17,1.17-2.38,1.69-3.59l.92.4C631.51,1122.76,630.93,1124,630.32,1125.18Zm3.2-7.4-.94-.34c.45-1.24.86-2.51,1.23-3.78l1,.28C634.39,1115.23,634,1116.52,633.52,1117.78Zm2.25-7.74-1-.22c.29-1.29.53-2.6.74-3.9l1,.16C636.31,1107.4,636.06,1108.73,635.77,1110Zm1.25-8-1-.09c.12-1.31.21-2.64.25-4l1,0C637.22,1099.4,637.14,1100.76,637,1102.08Zm-.75-8c0-1.32-.12-2.65-.24-4l1-.09c.13,1.33.21,2.68.25,4Zm-.73-7.89c-.21-1.31-.45-2.62-.74-3.9l1-.22c.29,1.3.54,2.63.75,4Zm-1.72-7.75c-.36-1.26-.77-2.53-1.22-3.77l.94-.34c.46,1.26.87,2.55,1.24,3.84Zm-2.67-7.45c-.52-1.21-1.09-2.42-1.68-3.59l.89-.45c.6,1.19,1.18,2.41,1.71,3.64Zm-3.59-7.07c-.66-1.13-1.38-2.25-2.12-3.35l.83-.56c.75,1.11,1.48,2.26,2.15,3.41Zm-4.44-6.56c-.81-1-1.65-2.07-2.52-3.06l.75-.66c.88,1,1.74,2.05,2.56,3.11Zm-5.23-6c-.93-.93-1.9-1.85-2.88-2.72l.66-.75c1,.89,2,1.82,2.93,2.77Zm-5.93-5.27c-1-.81-2.12-1.6-3.2-2.34l.56-.83c1.1.76,2.2,1.56,3.25,2.39Zm-6.55-4.48c-1.12-.68-2.29-1.33-3.47-1.93l.46-.89c1.2.61,2.38,1.27,3.53,2Zm-7-3.64c-1.21-.53-2.45-1-3.69-1.48l.34-.94c1.26.46,2.52,1,3.75,1.51Zm-7.46-2.72c-1.25-.37-2.54-.7-3.84-1l.23-1c1.31.3,2.63.64,3.9,1Zm-7.73-1.75c-1.29-.21-2.62-.38-3.93-.51l.09-1c1.34.13,2.68.31,4,.52Zm-7.89-.78c-.76,0-1.53,0-2.3,0H571.3v-1H573c.78,0,1.56,0,2.34,0Zm-8,0h-4v-1h4Zm-8,0h-4v-1h4Zm-8,0h-4v-1h4Zm-8,0h-4v-1h4Zm-8,0h-4v-1h4Zm-8,0h-4v-1h4Zm-8,0h-4v-1h4Z"/><path class="cls-3" d="M60.34,1231.49,58.8,1229l.09,0,4.11,1.63,4.3,1-4.3.94-4.11,1.64-.09,0Z"/><text class="cls-4" transform="translate(92.95 31.71)"><tspan class="cls-5">O</tspan><tspan class="cls-6" x="11.09" y="0">c</tspan><tspan x="18.46" y="0">t </tspan><tspan class="cls-7" x="27.15" y="0"></tspan><tspan class="cls-8"><tspan x="-12.49" y="21.6">2017</tspan></tspan></text><text class="cls-4" transform="translate(38.73 91.04)">BFG - G<tspan class="cls-9" x="48.83" y="0">T</tspan><tspan x="56.69" y="0">S </tspan><tspan class="cls-10" x="67.97" y="0">K</tspan><tspan x="76.8" y="0">icksta</tspan><tspan class="cls-11" x="114.56" y="0">r</tspan><tspan x="120.17" y="0">ts </tspan><tspan class="cls-12" x="11.94" y="19.2">T</tspan><tspan x="19.78" y="19.2">he </tspan><tspan class="cls-13" x="40.07" y="19.2">C</tspan><tspan x="49.17" y="19.2">eleb</tspan><tspan class="cls-5" x="78.09" y="19.2">r</tspan><tspan x="83.38" y="19.2">ities&apos;s </tspan><tspan class="cls-14" x="8.7" y="38.4">A</tspan><tspan x="18.44" y="38.4">pplic</tspan><tspan class="cls-15" x="51.33" y="38.4">a</tspan><tspan x="58.98" y="38.4">tion </tspan><tspan class="cls-12" x="89.08" y="38.4">E</tspan><tspan class="cls-16" x="96.84" y="38.4">v</tspan><tspan class="cls-17" x="104.37" y="38.4">e</tspan><tspan class="cls-18" x="112.39" y="38.4">n</tspan><tspan x="121.21" y="38.4">t</tspan></text><text class="cls-4" transform="translate(279.95 31.71)"><tspan class="cls-5">O</tspan><tspan class="cls-6" x="11.09" y="0">c</tspan><tspan x="18.46" y="0">t </tspan><tspan class="cls-7" x="27.15" y="0"></tspan><tspan class="cls-8"><tspan x="-12.49" y="21.6">2017</tspan></tspan></text><text class="cls-4" transform="translate(219.95 91.04)">BFG - G<tspan class="cls-19" x="48.83" y="0">T</tspan><tspan class="cls-20" x="56.69" y="0">S </tspan><tspan class="cls-14" x="67.97" y="0">A</tspan><tspan x="77.71" y="0">nnoun</tspan><tspan class="cls-9" x="121.95" y="0">c</tspan><tspan class="cls-17" x="129.02" y="0">es </tspan><tspan class="cls-21" x="-27.3" y="19.2">T</tspan><tspan class="cls-20" x="-20.48" y="19.2">echnology</tspan><tspan class="cls-22" x="50.29" y="19.2"> </tspan><tspan class="cls-23" x="53.02" y="19.2">T</tspan><tspan class="cls-24" x="60.26" y="19.2">r</tspan><tspan x="65.41" y="19.2">ans</tspan><tspan class="cls-25" x="88.34" y="19.2">f</tspan><tspan x="92.8" y="19.2">er </tspan><tspan class="cls-9" x="109.44" y="19.2">t</tspan><tspan x="114.64" y="19.2">o CHINA </tspan><tspan x="-25.21" y="38.4">on</tspan><tspan class="cls-26" x="-7.54" y="38.4"> </tspan><tspan class="cls-21" x="-4.81" y="38.4">T</tspan><tspan x="2.01" y="38.4">elevision </tspan><tspan class="cls-14" x="64.39" y="38.4">S</tspan><tspan x="72.23" y="38.4">t</tspan><tspan class="cls-18" x="77.53" y="38.4">a</tspan><tspan x="85.18" y="38.4">tion channel </tspan><tspan class="cls-27"><tspan x="27.78" y="57.6">V</tspan><tspan class="cls-28" x="37.24" y="57.6">T</tspan><tspan class="cls-20" x="45.83" y="57.6">V1 &amp; H</tspan><tspan class="cls-28" x="89.86" y="57.6">T</tspan><tspan class="cls-20" x="98.45" y="57.6">V1 </tspan></tspan></text><circle class="cls-29" cx="479.9" cy="35.2" r="35" transform="translate(115.67 349.65) rotate(-45)"/><path class="cls-3" d="M436.3,35.7h-4v-1h4Zm-8,0h-4v-1h4Zm-8,0h-4v-1h4Zm-8,0h-4v-1h4Zm-8,0h-4v-1h4Zm-8,0h-4v-1h4Zm-8,0h-4v-1h4Zm-8,0h-4v-1h4Zm-8,0h-4v-1h4Zm-8,0h-4v-1h4Zm-8,0h-4v-1h4Zm-8,0h-4v-1h4Zm-8,0h-4v-1h4Zm-8,0h-4v-1h4Z"/><path class="cls-3" d="M435.84,35.2l-1.54-2.52.09-.06,4.11,1.64,4.3.94-4.3.95-4.11,1.63-.09,0Z"/><text class="cls-4" transform="translate(466.39 31.71)">N<tspan class="cls-30" x="10.53" y="0">o</tspan><tspan class="cls-17" x="19.2" y="0">v </tspan><tspan class="cls-7" x="30.29" y="0"></tspan><tspan class="cls-8"><tspan x="-10.92" y="21.6">2017</tspan></tspan></text><text class="cls-4" transform="translate(434.55 91.04)">BFG Launches<tspan x="-27.33" y="19.2"> </tspan><tspan class="cls-31" x="-23.94" y="19.2">P</tspan><tspan class="cls-32" x="-15.68" y="19.2">r</tspan><tspan class="cls-33" x="-10.61" y="19.2">e</tspan><tspan x="-2.14" y="19.2">-</tspan><tspan class="cls-34" x="2.77" y="19.2">S</tspan><tspan x="10.7" y="19.2">ale in Singapo</tspan><tspan class="cls-32" x="104.67" y="19.2">r</tspan><tspan class="cls-35" x="109.74" y="19.2">e</tspan><tspan class="cls-20" x="117.57" y="19.2">.</tspan></text><circle class="cls-36" cx="102.9" cy="234.2" r="35" transform="translate(-135.47 141.36) rotate(-45)"/><text class="cls-4" transform="translate(89.88 230.71)"><tspan class="cls-5">D<tspan class="cls-17" x="10.72" y="0">ec </tspan><tspan class="cls-7" x="29.3" y="0"></tspan></tspan><tspan class="cls-8"><tspan x="-11.42" y="21.6">2017</tspan></tspan></text><text class="cls-4" transform="translate(52.47 289.67)">BFG - G<tspan class="cls-9" x="48.83" y="0">T</tspan><tspan x="56.69" y="0">S Opens </tspan><tspan class="cls-37" x="-20.26" y="19.2">W</tspan><tspan x="-6.98" y="19.2">i</tspan><tspan class="cls-15" x="-3.24" y="19.2">n</tspan><tspan class="cls-9" x="5.58" y="19.2">t</tspan><tspan x="10.78" y="19.2">er </tspan><tspan class="cls-38" x="27.42" y="19.2">P</tspan><tspan class="cls-39" x="35.51" y="19.2">a</tspan><tspan class="cls-40" x="43.22" y="19.2">r</tspan><tspan class="cls-41" x="48.84" y="19.2">t</tspan><tspan x="54.28" y="19.2">y </tspan><tspan class="cls-19" x="65.21" y="19.2">t</tspan><tspan class="cls-42" x="70.41" y="19.2">o Launch </tspan><tspan class="cls-14" x="-12.24" y="38.4">A</tspan><tspan x="-2.5" y="38.4">pp</tspan><tspan class="cls-43" x="15.71" y="38.4"> </tspan><tspan class="cls-37" x="18.53" y="38.4">W</tspan><tspan x="31.81" y="38.4">ith </tspan><tspan class="cls-44" x="53.12" y="38.4">C</tspan><tspan x="62.22" y="38.4">eleb</tspan><tspan class="cls-45" x="91.13" y="38.4">r</tspan><tspan x="96.43" y="38.4">ities</tspan></text><circle class="cls-46" cx="289.9" cy="234.2" r="35" transform="translate(-80.7 273.58) rotate(-45)"/><path class="cls-3" d="M246.3,234.7h-4v-1h4Zm-8,0h-4v-1h4Zm-8,0h-4v-1h4Zm-8,0h-4v-1h4Zm-8,0h-4v-1h4Zm-8,0h-4v-1h4Zm-8,0h-4v-1h4Zm-8,0h-4v-1h4Zm-8,0h-4v-1h4Zm-8,0h-4v-1h4Zm-8,0h-4v-1h4Zm-8,0h-4v-1h4Zm-8,0h-4v-1h4Zm-8,0h-4v-1h4Z"/><path class="cls-3" d="M245.84,234.2l-1.54-2.52.09-.06,4.11,1.64,4.3.94-4.3,1-4.11,1.63-.09,0Z"/><path class="cls-3" d="M433.3,234.7h-4v-1h4Zm-8,0h-4v-1h4Zm-8,0h-4v-1h4Zm-8,0h-4v-1h4Zm-8,0h-4v-1h4Zm-8,0h-4v-1h4Zm-8,0h-4v-1h4Zm-8,0h-4v-1h4Zm-8,0h-4v-1h4Zm-8,0h-4v-1h4Zm-8,0h-4v-1h4Zm-8,0h-4v-1h4Zm-8,0h-4v-1h4Zm-8,0h-4v-1h4Z"/><path class="cls-3" d="M432.84,234.2l-1.54-2.52.09-.06,4.11,1.64,4.3.94-4.3,1-4.11,1.63-.09,0Z"/><text class="cls-47" transform="translate(276.88 230.71)"><tspan class="cls-48">M</tspan><tspan x="12.96" y="0">ar </tspan><tspan class="cls-7" x="29.3" y="0"></tspan><tspan class="cls-8"><tspan x="-11.42" y="21.6">2018</tspan></tspan></text><text class="cls-47" transform="translate(212.1 289.67)">BFG Opens New <tspan class="cls-49" x="110.65" y="0">O</tspan><tspan x="121.93" y="0">ffi</tspan><tspan class="cls-9" x="134.97" y="0">c</tspan><tspan x="142.04" y="0">e in </tspan><tspan x="38.57" y="19.2">Uni</tspan><tspan class="cls-9" x="61.54" y="19.2">t</tspan><tspan x="66.74" y="19.2">ed </tspan><tspan class="cls-14" x="87.17" y="19.2">S</tspan><tspan x="95.01" y="19.2">t</tspan><tspan class="cls-15" x="100.31" y="19.2">a</tspan><tspan class="cls-9" x="107.96" y="19.2">t</tspan><tspan x="113.16" y="19.2">es</tspan></text><circle class="cls-50" cx="102.9" cy="433.2" r="35" transform="translate(-276.18 199.64) rotate(-45)"/><text class="cls-51" transform="translate(92.49 429.71)"><tspan class="cls-14">A</tspan><tspan x="9.74" y="0">pr</tspan><tspan class="cls-52" x="24.08" y="0"></tspan><tspan class="cls-8"><tspan x="-14.02" y="21.6">2018</tspan></tspan></text><circle class="cls-53" cx="290.9" cy="433.2" r="35" transform="translate(-221.12 332.58) rotate(-45)"/><path class="cls-3" d="M247.3,433.7h-4v-1h4Zm-8,0h-4v-1h4Zm-8,0h-4v-1h4Zm-8,0h-4v-1h4Zm-8,0h-4v-1h4Zm-8,0h-4v-1h4Zm-8,0h-4v-1h4Zm-8,0h-4v-1h4Zm-8,0h-4v-1h4Zm-8,0h-4v-1h4Zm-8,0h-4v-1h4Zm-8,0h-4v-1h4Zm-8,0h-4v-1h4Zm-8,0h-4v-1h4Z"/><path class="cls-3" d="M246.84,433.2l-1.54-2.52.09-.06,4.11,1.64,4.3.94-4.3.95-4.11,1.63-.09,0Z"/><text class="cls-51" transform="translate(280.49 429.71)"><tspan class="cls-14">A</tspan><tspan x="9.74" y="0">pr</tspan><tspan class="cls-52" x="24.08" y="0"></tspan><tspan class="cls-8"><tspan x="-14.02" y="21.6">2018</tspan></tspan></text><text class="cls-51" transform="translate(243.86 489.04)">BFG Launches <tspan x="-23.65" y="19.2">Bloc</tspan><tspan class="cls-54" x="4.75" y="19.2">F</tspan><tspan class="cls-17" x="12.05" y="19.2">o</tspan><tspan class="cls-5" x="20.83" y="19.2">r</tspan><tspan x="26.13" y="19.2">m </tspan><tspan class="cls-55" x="42.86" y="19.2">M</tspan><tspan x="55.82" y="19.2">obile </tspan><tspan class="cls-14" x="92.64" y="19.2">A</tspan><tspan class="cls-20" x="102.38" y="19.2">pp</tspan></text><circle class="cls-56" cx="477.9" cy="433.2" r="35" transform="translate(-166.35 464.81) rotate(-45)"/><path class="cls-3" d="M434.3,433.7h-4v-1h4Zm-8,0h-4v-1h4Zm-8,0h-4v-1h4Zm-8,0h-4v-1h4Zm-8,0h-4v-1h4Zm-8,0h-4v-1h4Zm-8,0h-4v-1h4Zm-8,0h-4v-1h4Zm-8,0h-4v-1h4Zm-8,0h-4v-1h4Zm-8,0h-4v-1h4Zm-8,0h-4v-1h4Zm-8,0h-4v-1h4Zm-8,0h-4v-1h4Z"/><path class="cls-3" d="M433.84,433.2l-1.54-2.52.09-.06,4.11,1.64,4.3.94-4.3.95-4.11,1.63-.09,0Z"/><text class="cls-51" transform="translate(465.49 429.71)"><tspan class="cls-48">M</tspan><tspan class="cls-57" x="12.96" y="0">a</tspan><tspan x="20.54" y="0">y</tspan><tspan class="cls-7" x="28.08" y="0"></tspan><tspan class="cls-8"><tspan x="-12.02" y="21.6">2018</tspan></tspan></text><text class="cls-51" transform="translate(450.85 488.67)">BFG - G<tspan class="cls-9" x="48.83" y="0">T</tspan><tspan x="56.69" y="0">S </tspan><tspan x="-42.42" y="19.2">Opens </tspan><tspan class="cls-49" x="4.33" y="19.2">O</tspan><tspan x="15.61" y="19.2">ffi</tspan><tspan class="cls-9" x="28.65" y="19.2">c</tspan><tspan x="35.72" y="19.2">e in CHINA</tspan></text><circle class="cls-58" cx="101.9" cy="632.2" r="35" transform="translate(-417.19 257.22) rotate(-45)"/><text class="cls-51" transform="translate(89.49 628.71)"><tspan class="cls-48">M</tspan><tspan class="cls-57" x="12.96" y="0">a</tspan><tspan x="20.54" y="0">y</tspan><tspan class="cls-7" x="28.08" y="0"></tspan><tspan class="cls-8"><tspan x="-12.02" y="21.6">2018</tspan></tspan></text><text class="cls-51" transform="translate(60.36 687.67)">BFG Launches <tspan class="cls-59" x="-13.34" y="19.2">P</tspan><tspan class="cls-57" x="-5.25" y="19.2">a</tspan><tspan x="2.33" y="19.2">yme</tspan><tspan class="cls-18" x="31.23" y="19.2">n</tspan><tspan x="40.05" y="19.2">t </tspan><tspan class="cls-60" x="48.73" y="19.2">G</tspan><tspan class="cls-15" x="59.2" y="19.2">a</tspan><tspan class="cls-9" x="66.85" y="19.2">t</tspan><tspan x="72.05" y="19.2">e</tspan><tspan class="cls-18" x="80.06" y="19.2">w</tspan><tspan class="cls-57" x="91.77" y="19.2">a</tspan><tspan class="cls-39" x="99.36" y="19.2">y </tspan><tspan class="cls-61" x="-1.26" y="38.4">(</tspan><tspan x="3.09" y="38.4">G</tspan><tspan class="cls-19" x="13.42" y="38.4">T</tspan><tspan x="21.28" y="38.4">S pl</tspan><tspan class="cls-18" x="45.44" y="38.4">a</tspan><tspan x="53.09" y="38.4">t</tspan><tspan class="cls-25" x="58.38" y="38.4">f</tspan><tspan x="62.85" y="38.4">o</tspan><tspan class="cls-62" x="71.63" y="38.4">r</tspan><tspan x="76.93" y="38.4">m)</tspan><tspan class="cls-25" x="-13.06" y="57.6">f</tspan><tspan x="-8.6" y="57.6">or</tspan><tspan class="cls-22" x="5.42" y="57.6"> </tspan><tspan class="cls-12" x="8.15" y="57.6">T</tspan><tspan x="15.99" y="57.6">he </tspan><tspan class="cls-18" x="36.28" y="57.6">E</tspan><tspan class="cls-19" x="44.09" y="57.6">c</tspan><tspan class="cls-42" x="51.16" y="57.6">os</tspan><tspan class="cls-19" x="66.28" y="57.6">y</tspan><tspan x="73.72" y="57.6">s</tspan><tspan class="cls-9" x="80.05" y="57.6">t</tspan><tspan x="85.25" y="57.6">em</tspan></text><circle class="cls-63" cx="476.8" cy="234.2" r="35" transform="translate(-25.95 405.74) rotate(-45)"/><text class="cls-47" transform="translate(466.58 230.91)"><tspan class="cls-55">M</tspan><tspan x="12.96" y="0">ar</tspan><tspan class="cls-52" x="25.9" y="0"></tspan><tspan class="cls-8"><tspan x="-13.11" y="21.6">2018</tspan></tspan></text><text class="cls-47" transform="translate(388.82 289.87)">BFG Hosts A <tspan class="cls-37" x="83.95" y="0">P</tspan><tspan class="cls-45" x="92.21" y="0">r</tspan><tspan x="97.5" y="0">i</tspan><tspan class="cls-15" x="101.25" y="0">va</tspan><tspan class="cls-19" x="116.53" y="0">t</tspan><tspan x="121.72" y="0">e Dinner </tspan><tspan x="37.5" y="19.2">with </tspan><tspan class="cls-44" x="70.59" y="19.2">C</tspan><tspan x="79.7" y="19.2">eleb</tspan><tspan class="cls-45" x="108.61" y="19.2">r</tspan><tspan x="113.9" y="19.2">ities </tspan><tspan x="13.73" y="38.4">in </tspan><tspan class="cls-41" x="29.74" y="38.4">H</tspan><tspan class="cls-18" x="40.32" y="38.4">ya</tspan><tspan x="55.44" y="38.4">tt Ho</tspan><tspan class="cls-9" x="88.64" y="38.4">t</tspan><tspan x="93.84" y="38.4">el &amp; </tspan><tspan class="cls-45" x="122.09" y="38.4">R</tspan><tspan x="130.77" y="38.4">eso</tspan><tspan class="cls-64" x="153.9" y="38.4">r</tspan><tspan class="cls-42" x="159.52" y="38.4">t </tspan><tspan x="6.58" y="57.6">(Hu</tspan><tspan class="cls-15" x="30.38" y="57.6">n</tspan><tspan class="cls-42" x="39.19" y="57.6">ting</tspan><tspan class="cls-9" x="66.05" y="57.6">t</tspan><tspan x="71.25" y="57.6">on </tspan><tspan class="cls-45" x="92.31" y="57.6">B</tspan><tspan x="101.05" y="57.6">each, US</tspan><tspan class="cls-65" x="157.76" y="57.6">A</tspan><tspan class="cls-42" x="167.41" y="57.6">)</tspan></text><text class="cls-66" transform="translate(29.99 488.67)">BFG Si<tspan class="cls-9" x="41.82" y="0">g</tspan><tspan x="50.67" y="0">ns </tspan><tspan class="cls-59" x="69.28" y="0">P</tspan><tspan x="77.38" y="0">a</tspan><tspan class="cls-64" x="85.09" y="0">r</tspan><tspan x="90.7" y="0">tnership </tspan><tspan class="cls-67" x="-15.89" y="19.2">A</tspan><tspan class="cls-9" x="-6.29" y="19.2">g</tspan><tspan class="cls-32" x="2.56" y="19.2">r</tspan><tspan class="cls-20" x="7.63" y="19.2">eeme</tspan><tspan class="cls-15" x="45.02" y="19.2">n</tspan><tspan x="53.84" y="19.2">t with</tspan><tspan class="cls-43" x="92.22" y="19.2"> </tspan><tspan x="95.04" y="19.2">VI</tspan><tspan class="cls-49" x="107.79" y="19.2">E</tspan><tspan class="cls-68" x="115.92" y="19.2">T</tspan><tspan x="123.44" y="19.2">O</tspan><tspan class="cls-69" x="134.46" y="19.2">D</tspan><tspan class="cls-70" x="144.9" y="19.2">A</tspan><tspan class="cls-39" x="153.42" y="19.2">Y </tspan><tspan class="cls-71" x="-10.33" y="38.4">(</tspan><tspan class="cls-28" x="-5.02" y="38.4">T</tspan><tspan class="cls-72" x="3.58" y="38.4">V</tspan><tspan class="cls-20" x="11.62" y="38.4">, </tspan><tspan class="cls-73" x="18.33" y="38.4">R</tspan><tspan x="27.13" y="38.4">adi</tspan><tspan class="cls-74" x="47.61" y="38.4">o</tspan><tspan x="56.01" y="38.4">, &amp; IP</tspan><tspan class="cls-28" x="88.12" y="38.4">T</tspan><tspan x="96.71" y="38.4">V </tspan><tspan class="cls-14" x="109.03" y="38.4">S</tspan><tspan x="116.87" y="38.4">t</tspan><tspan class="cls-18" x="122.16" y="38.4">a</tspan><tspan x="129.81" y="38.4">tion </tspan><tspan x="48.87" y="57.6">in US</tspan><tspan class="cls-75" x="83.13" y="57.6">A</tspan><tspan x="92.77" y="57.6">)</tspan></text><circle class="cls-76" cx="102.9" cy="832.2" r="35" transform="translate(-558.32 316.51) rotate(-45)"/><text class="cls-51" transform="translate(91.98 828.71)"><tspan class="cls-48">S<tspan class="cls-20" x="7.98" y="0">ep</tspan><tspan class="cls-7" x="25.1" y="0"></tspan></tspan><tspan class="cls-8"><tspan x="-13.51" y="21.6">2018</tspan></tspan></text><text class="cls-51" transform="translate(55.86 888.04)">BFG Launches <tspan class="cls-21" x="-20.65" y="19.2">T</tspan><tspan class="cls-17" x="-13.83" y="19.2">op</tspan><tspan class="cls-77" x="4.06" y="19.2">S</tspan><tspan x="11.9" y="19.2">tars </tspan><tspan class="cls-55" x="39.86" y="19.2">M</tspan><tspan class="cls-20" x="52.82" y="19.2">obile </tspan><tspan class="cls-14" x="89.64" y="19.2">A</tspan><tspan x="99.38" y="19.2">pp</tspan></text><circle class="cls-78" cx="289.9" cy="832.2" r="35" transform="translate(-503.55 448.73) rotate(-45)"/><path class="cls-3" d="M246.3,832.7h-4v-1h4Zm-8,0h-4v-1h4Zm-8,0h-4v-1h4Zm-8,0h-4v-1h4Zm-8,0h-4v-1h4Zm-8,0h-4v-1h4Zm-8,0h-4v-1h4Zm-8,0h-4v-1h4Zm-8,0h-4v-1h4Zm-8,0h-4v-1h4Zm-8,0h-4v-1h4Zm-8,0h-4v-1h4Zm-8,0h-4v-1h4Zm-8,0h-4v-1h4Z"/><path class="cls-3" d="M245.84,832.2l-1.54-2.52.09-.06,4.11,1.64,4.3.94-4.3.95-4.11,1.63-.09,0Z"/><text class="cls-51" transform="translate(278.98 828.71)"><tspan class="cls-48">S<tspan class="cls-20" x="7.98" y="0">ep</tspan><tspan class="cls-7" x="25.1" y="0"></tspan></tspan><tspan class="cls-8"><tspan x="-13.51" y="21.6">2018</tspan></tspan></text><text class="cls-51" transform="translate(210.19 887.67)">BFG - G<tspan class="cls-9" x="48.83" y="0">T</tspan><tspan x="56.69" y="0">S Launching </tspan><tspan class="cls-14" x="141.93" y="0">A</tspan><tspan x="151.68" y="0">pp </tspan><tspan class="cls-25" x="10.5" y="19.2">f</tspan><tspan x="14.96" y="19.2">or new </tspan><tspan class="cls-68" x="64.43" y="19.2">U</tspan><tspan x="74.35" y="19.2">.S </tspan><tspan class="cls-44" x="88.94" y="19.2">C</tspan><tspan x="98.04" y="19.2">eleb</tspan><tspan class="cls-62" x="126.95" y="19.2">r</tspan><tspan x="132.25" y="19.2">ities</tspan></text><circle class="cls-79" cx="476.9" cy="832.2" r="35" transform="translate(-448.77 580.96) rotate(-45)"/><path class="cls-3" d="M433.3,832.7h-4v-1h4Zm-8,0h-4v-1h4Zm-8,0h-4v-1h4Zm-8,0h-4v-1h4Zm-8,0h-4v-1h4Zm-8,0h-4v-1h4Zm-8,0h-4v-1h4Zm-8,0h-4v-1h4Zm-8,0h-4v-1h4Zm-8,0h-4v-1h4Zm-8,0h-4v-1h4Zm-8,0h-4v-1h4Zm-8,0h-4v-1h4Zm-8,0h-4v-1h4Z"/><path class="cls-3" d="M432.84,832.2l-1.54-2.52.09-.06,4.11,1.64,4.3.94-4.3.95-4.11,1.63-.09,0Z"/><text class="cls-51" transform="translate(466.65 828.71)"><tspan class="cls-5">O</tspan><tspan class="cls-80" x="11.09" y="0">c</tspan><tspan x="18.46" y="0">t</tspan><tspan class="cls-52" x="23.76" y="0"></tspan><tspan class="cls-8"><tspan x="-14.18" y="21.6">2018</tspan></tspan></text><text class="cls-51" transform="translate(435.36 887.67)">BFG Launches <tspan x="-33.85" y="19.2">Online </tspan><tspan class="cls-45" x="13.86" y="19.2">B</tspan><tspan class="cls-39" x="22.6" y="19.2">oo</tspan><tspan class="cls-81" x="40.17" y="19.2">k</tspan><tspan x="47.94" y="19.2">ing </tspan><tspan class="cls-55" x="72.9" y="19.2">S</tspan><tspan x="80.89" y="19.2">e</tspan><tspan class="cls-82" x="88.9" y="19.2">r</tspan><tspan x="94.54" y="19.2">vi</tspan><tspan class="cls-9" x="105.97" y="19.2">c</tspan><tspan x="113.05" y="19.2">es</tspan><tspan class="cls-67" x="-17.32" y="38.4">(</tspan><tspan class="cls-20" x="-12.97" y="38.4">Only </tspan><tspan class="cls-55" x="21.64" y="38.4">M</tspan><tspan x="34.6" y="38.4">embershi</tspan><tspan class="cls-14" x="97.27" y="38.4">p</tspan><tspan x="106.33" y="38.4">)</tspan></text><circle class="cls-83" cx="292.8" cy="632.2" r="35" transform="translate(-361.27 392.21) rotate(-45)"/><circle class="cls-84" cx="480.9" cy="632.4" r="35" transform="translate(-306.32 525.27) rotate(-45)"/><path class="cls-3" d="M437.3,632.9h-4v-1h4Zm-8,0h-4v-1h4Zm-8,0h-4v-1h4Zm-8,0h-4v-1h4Zm-8,0h-4v-1h4Zm-8,0h-4v-1h4Zm-8,0h-4v-1h4Zm-8,0h-4v-1h4Zm-8,0h-4v-1h4Zm-8,0h-4v-1h4Zm-8,0h-4v-1h4Zm-8,0h-4v-1h4Zm-8,0h-4v-1h4Zm-8,0h-4v-1h4Z"/><path class="cls-3" d="M436.84,632.4l-1.54-2.52.09-.06,4.11,1.64,4.3.94-4.3,1L435.39,635l-.09,0Z"/><path class="cls-3" d="M248.3,632.9h-4v-1h4Zm-8,0h-4v-1h4Zm-8,0h-4v-1h4Zm-8,0h-4v-1h4Zm-8,0h-4v-1h4Zm-8,0h-4v-1h4Zm-8,0h-4v-1h4Zm-8,0h-4v-1h4Zm-8,0h-4v-1h4Zm-8,0h-4v-1h4Zm-8,0h-4v-1h4Zm-8,0h-4v-1h4Zm-8,0h-4v-1h4Zm-8,0h-4v-1h4Z"/><path class="cls-3" d="M247.84,632.4l-1.54-2.52.09-.06,4.11,1.64,4.3.94-4.3,1L246.39,635l-.09,0Z"/><text class="cls-66" transform="translate(283.72 628.91)">Jun<tspan class="cls-52" x="23.62" y="0"></tspan><tspan class="cls-8"><tspan x="-14.26" y="21.6">2018</tspan></tspan></text><text class="cls-51" transform="translate(468.85 628.91)"><tspan class="cls-67">A</tspan><tspan x="9.6" y="0">ug</tspan><tspan class="cls-7" x="27.36" y="0"></tspan><tspan class="cls-8"><tspan x="-12.38" y="21.6">2018</tspan></tspan></text><text class="cls-66" transform="translate(247.31 687.87)">BFG Launches <tspan x="-37.5" y="19.2">a</tspan><tspan class="cls-26" x="-29.78" y="19.2"> </tspan><tspan class="cls-21" x="-27.05" y="19.2">T</tspan><tspan x="-20.23" y="19.2">op</tspan><tspan class="cls-22" x="-2.34" y="19.2"> </tspan><tspan class="cls-23" x="0.39" y="19.2">T</tspan><tspan class="cls-85" x="7.62" y="19.2">r</tspan><tspan x="12.78" y="19.2">ade </tspan><tspan class="cls-86" x="40.92" y="19.2">P</tspan><tspan x="49.35" y="19.2">l</tspan><tspan class="cls-15" x="53.13" y="19.2">a</tspan><tspan class="cls-42" x="60.78" y="19.2">t</tspan><tspan class="cls-25" x="66.07" y="19.2">f</tspan><tspan x="70.54" y="19.2">o</tspan><tspan class="cls-62" x="79.32" y="19.2">r</tspan><tspan x="84.62" y="19.2">m with </tspan><tspan x="-28.18" y="38.4">BFG p</tspan><tspan class="cls-57" x="11.11" y="38.4">a</tspan><tspan x="18.69" y="38.4">yme</tspan><tspan class="cls-18" x="47.59" y="38.4">n</tspan><tspan class="cls-39" x="56.41" y="38.4">t g</tspan><tspan class="cls-15" x="74.04" y="38.4">a</tspan><tspan class="cls-9" x="81.68" y="38.4">t</tspan><tspan x="86.88" y="38.4">e</tspan><tspan class="cls-15" x="94.9" y="38.4">w</tspan><tspan class="cls-57" x="106.61" y="38.4">a</tspan><tspan x="114.2" y="38.4">y </tspan><tspan x="-40.2" y="57.6">(E</tspan><tspan class="cls-87" x="-27.78" y="57.6">-</tspan><tspan class="cls-88" x="-22.58" y="57.6">c</tspan><tspan class="cls-17" x="-15.51" y="57.6">omme</tspan><tspan class="cls-89" x="27.97" y="57.6">r</tspan><tspan class="cls-19" x="33.05" y="57.6">c</tspan><tspan x="40.12" y="57.6">e </tspan><tspan class="cls-55" x="51.53" y="57.6">M</tspan><tspan x="64.49" y="57.6">obile </tspan><tspan class="cls-14" x="101.3" y="57.6">A</tspan><tspan x="111.05" y="57.6">p</tspan><tspan class="cls-14" x="120.15" y="57.6">p</tspan><tspan x="129.21" y="57.6">)</tspan></text><text class="cls-66" transform="translate(414.43 687.87)">BFG go <tspan class="cls-9" x="51.31" y="0">t</tspan><tspan x="56.51" y="0">o E</tspan><tspan class="cls-90" x="76.56" y="0">x</tspan><tspan x="83.73" y="0">change </tspan><tspan x="3.86" y="19.2">and listing on CMC</tspan></text><circle class="cls-91" cx="101.8" cy="1031" r="35" transform="translate(-699.21 373.96) rotate(-45)"/><circle class="cls-92" cx="289.9" cy="1031.2" r="35" transform="translate(-644.26 507.02) rotate(-45)"/><path class="cls-3" d="M246.3,1031.7h-4v-1h4Zm-8,0h-4v-1h4Zm-8,0h-4v-1h4Zm-8,0h-4v-1h4Zm-8,0h-4v-1h4Zm-8,0h-4v-1h4Zm-8,0h-4v-1h4Zm-8,0h-4v-1h4Zm-8,0h-4v-1h4Zm-8,0h-4v-1h4Zm-8,0h-4v-1h4Zm-8,0h-4v-1h4Zm-8,0h-4v-1h4Zm-8,0h-4v-1h4Z"/><path class="cls-3" d="M245.84,1031.2l-1.54-2.52.09-.06,4.11,1.64,4.3.94-4.3,1-4.11,1.63-.09,0Z"/><text class="cls-66" transform="translate(91.08 1027.71)">N<tspan class="cls-12" x="10.53" y="0">o</tspan><tspan class="cls-20" x="19.2" y="0">v</tspan><tspan class="cls-52" x="26.9" y="0"></tspan><tspan class="cls-8"><tspan x="-12.62" y="21.6">2018</tspan></tspan></text><text class="cls-51" transform="translate(278.58 1027.71)"><tspan class="cls-5">D<tspan class="cls-20" x="10.72" y="0">ec</tspan><tspan class="cls-7" x="25.9" y="0"></tspan></tspan><tspan class="cls-8"><tspan x="-13.11" y="21.6">2018</tspan></tspan></text><circle class="cls-93" cx="477.9" cy="1031.2" r="35" transform="translate(-589.2 639.96) rotate(-45)"/><path class="cls-3" d="M434.3,1031.7h-4v-1h4Zm-8,0h-4v-1h4Zm-8,0h-4v-1h4Zm-8,0h-4v-1h4Zm-8,0h-4v-1h4Zm-8,0h-4v-1h4Zm-8,0h-4v-1h4Zm-8,0h-4v-1h4Zm-8,0h-4v-1h4Zm-8,0h-4v-1h4Zm-8,0h-4v-1h4Zm-8,0h-4v-1h4Zm-8,0h-4v-1h4Zm-8,0h-4v-1h4Z"/><path class="cls-3" d="M433.84,1031.2l-1.54-2.52.09-.06,4.11,1.64,4.3.94-4.3,1-4.11,1.63-.09,0Z"/><text class="cls-51" transform="translate(467.32 1027.71)"><tspan class="cls-94">F<tspan class="cls-20" x="7.3" y="0">eb</tspan><tspan class="cls-7" x="24.42" y="0"></tspan></tspan><tspan class="cls-8"><tspan x="-13.86" y="21.6">2019</tspan></tspan></text><text class="cls-51" transform="translate(414 1087.04)">BFG Launches New <tspan class="cls-60" x="-17.91" y="19.2">G</tspan><tspan x="-7.45" y="19.2">ame </tspan><tspan class="cls-14" x="25.02" y="19.2">A</tspan><tspan x="34.76" y="19.2">pp </tspan><tspan class="cls-95" x="56.36" y="19.2">f</tspan><tspan class="cls-17" x="60.82" y="19.2">or </tspan><tspan class="cls-96" x="78.23" y="19.2">E</tspan><tspan class="cls-88" x="86.04" y="19.2">c</tspan><tspan x="93.11" y="19.2">os</tspan><tspan class="cls-88" x="108.23" y="19.2">y</tspan><tspan x="115.67" y="19.2">s</tspan><tspan class="cls-88" x="122.01" y="19.2">t</tspan><tspan class="cls-20" x="127.21" y="19.2">em</tspan></text><circle class="cls-97" cx="100.9" cy="1231.2" r="35" transform="translate(-841.04 431.96) rotate(-45)"/><path class="cls-3" d="M430.3,1231.7h-4v-1h4Zm-8,0h-4v-1h4Zm-8,0h-4v-1h4Zm-8,0h-4v-1h4Zm-8,0h-4v-1h4Zm-8,0h-4v-1h4Zm-8,0h-4v-1h4Zm-8,0h-4v-1h4Zm-8,0h-4v-1h4Zm-8,0h-4v-1h4Zm-8,0h-4v-1h4Zm-8,0h-4v-1h4Zm-8,0h-4v-1h4Zm-8,0h-4v-1h4Z"/><path class="cls-3" d="M429.84,1231.2l-1.54-2.52.09-.06,4.11,1.64,4.3.94-4.3,1-4.11,1.63-.09,0Z"/><text class="cls-51" transform="translate(88.49 1227.71)"><tspan class="cls-48">M</tspan><tspan class="cls-57" x="12.96" y="0">a</tspan><tspan x="20.54" y="0">y</tspan><tspan class="cls-7" x="28.08" y="0"></tspan><tspan class="cls-8"><tspan x="-12.02" y="21.6">2019</tspan></tspan></text><text class="cls-51" transform="translate(21.95 1286.67)">BFG <tspan class="cls-45" x="30.19" y="0">D</tspan><tspan x="40.91" y="0">e</tspan><tspan class="cls-32" x="48.93" y="0">v</tspan><tspan x="56.46" y="0">elops </tspan><tspan class="cls-55" x="95.87" y="0">M</tspan><tspan x="108.83" y="0">o</tspan><tspan class="cls-32" x="117.61" y="0">r</tspan><tspan x="122.68" y="0">e </tspan><tspan class="cls-14" x="134.09" y="0">A</tspan><tspan x="143.83" y="0">pps </tspan><tspan class="cls-95" x="18.15" y="19.2">f</tspan><tspan class="cls-17" x="22.62" y="19.2">or </tspan><tspan class="cls-9" x="40.02" y="19.2">A</tspan><tspan x="49.72" y="19.2">sian </tspan><tspan class="cls-44" x="79.78" y="19.2">C</tspan><tspan x="88.89" y="19.2">eleb</tspan><tspan class="cls-62" x="117.8" y="19.2">r</tspan><tspan x="123.09" y="19.2">ities </tspan></text><circle class="cls-98" cx="287.9" cy="1231.2" r="35" transform="translate(-786.27 564.18) rotate(-45)"/><path class="cls-3" d="M244.3,1231.7h-4v-1h4Zm-8,0h-4v-1h4Zm-8,0h-4v-1h4Zm-8,0h-4v-1h4Zm-8,0h-4v-1h4Zm-8,0h-4v-1h4Zm-8,0h-4v-1h4Zm-8,0h-4v-1h4Zm-8,0h-4v-1h4Zm-8,0h-4v-1h4Zm-8,0h-4v-1h4Zm-8,0h-4v-1h4Zm-8,0h-4v-1h4Zm-8,0h-4v-1h4Z"/><path class="cls-3" d="M243.84,1231.2l-1.54-2.52.09-.06,4.11,1.64,4.3.94-4.3,1-4.11,1.63-.09,0Z"/><text class="cls-51" transform="translate(275.85 1227.71)"><tspan class="cls-67">A</tspan><tspan x="9.6" y="0">ug</tspan><tspan class="cls-7" x="27.36" y="0"></tspan><tspan class="cls-8"><tspan x="-12.38" y="21.6">2019</tspan></tspan></text><text class="cls-51" transform="translate(222.64 1286.67)">Up<tspan class="cls-9" x="19.46" y="0">g</tspan><tspan class="cls-86" x="28.3" y="0">r</tspan><tspan x="33.46" y="0">ade new </tspan><tspan class="cls-25" x="93.66" y="0">f</tspan><tspan x="98.13" y="0">e</tspan><tspan class="cls-18" x="106.14" y="0">a</tspan><tspan x="113.79" y="0">tu</tspan><tspan class="cls-32" x="127.9" y="0">r</tspan><tspan x="132.97" y="0">e </tspan><tspan x="12.46" y="19.2">of the </tspan><tspan class="cls-18" x="54.89" y="19.2">E</tspan><tspan class="cls-19" x="62.69" y="19.2">c</tspan><tspan x="69.77" y="19.2">os</tspan><tspan class="cls-9" x="84.89" y="19.2">y</tspan><tspan x="92.33" y="19.2">s</tspan><tspan class="cls-9" x="98.66" y="19.2">t</tspan><tspan x="103.86" y="19.2">em.</tspan></text><text class="cls-66" transform="translate(47.43 1086.67)">BFG - G<tspan class="cls-9" x="48.83" y="0">T</tspan><tspan x="56.69" y="0">S Opens </tspan><tspan x="-17.86" y="19.2">New </tspan><tspan class="cls-49" x="15.86" y="19.2">O</tspan><tspan x="27.14" y="19.2">ffi</tspan><tspan class="cls-9" x="40.18" y="19.2">c</tspan><tspan x="47.25" y="19.2">e in FRENCH</tspan></text><circle class="cls-99" cx="472.8" cy="1231.2" r="35" transform="translate(-732.11 694.93) rotate(-45)"/><text class="cls-66" transform="translate(458.11 1224.91)">2020<tspan x="13.96" y="11.2">-</tspan><tspan x="-1.7" y="22.4">2021 </tspan></text><text class="cls-66" transform="translate(441.8 1286.87)">BFG - G<tspan class="cls-9" x="48.83" y="0">T</tspan><tspan x="56.69" y="0">S </tspan><tspan class="cls-37" x="-13.36" y="19.2">W</tspan><tspan x="-0.08" y="19.2">ill </tspan><tspan class="cls-100" x="14.61" y="19.2">G</tspan><tspan x="25.02" y="19.2">o </tspan><tspan class="cls-9" x="37.2" y="19.2">t</tspan><tspan class="cls-39" x="42.4" y="19.2">o IPO</tspan></text><text class="cls-66" transform="translate(200.35 1086.67)">BFG Upd<tspan class="cls-18" x="58.67" y="0">a</tspan><tspan class="cls-19" x="66.32" y="0">t</tspan><tspan x="71.52" y="0">es New </tspan><tspan class="cls-94" x="122.97" y="0">F</tspan><tspan x="130.27" y="0">e</tspan><tspan class="cls-18" x="138.28" y="0">a</tspan><tspan x="145.93" y="0">tu</tspan><tspan class="cls-32" x="160.04" y="0">r</tspan><tspan x="165.12" y="0">es </tspan><tspan class="cls-25" x="10.01" y="19.2">f</tspan><tspan x="14.47" y="19.2">or</tspan><tspan class="cls-26" x="28.49" y="19.2"> </tspan><tspan class="cls-101" x="31.22" y="19.2">T</tspan><tspan class="cls-42" x="38.04" y="19.2">op</tspan><tspan class="cls-14" x="55.93" y="19.2">S</tspan><tspan class="cls-39" x="63.77" y="19.2">tars </tspan><tspan class="cls-102" x="91.74" y="19.2">M</tspan><tspan x="104.7" y="19.2">obile </tspan><tspan class="cls-14" x="141.51" y="19.2">A</tspan><tspan x="151.26" y="19.2">pp</tspan></text></g></g></svg>